$MeshFormat
4.1 0 8
$EndMeshFormat
$PhysicalNames
3
2 2 "DIRICHLET_X0"
2 3 "NEUMANN_Z0"
3 400 "VOLUME"
$EndPhysicalNames
$Entities
8 12 6 1
1 0 0 1 0 
2 0 0 0 0 
3 0 1 1 0 
4 0 1 0 0 
5 10 0 1 0 
6 10 0 0 0 
7 10 1 1 0 
8 10 1 0 0 
1 -1e-07 -1e-07 -9.999999994736442e-08 1e-07 1e-07 1.0000001 0 2 2 -1 
2 -1e-07 -9.999999994736442e-08 0.9999999000000001 1e-07 1.0000001 1.0000001 0 2 1 -3 
3 -1e-07 0.9999999000000001 -9.999999994736442e-08 1e-07 1.0000001 1.0000001 0 2 4 -3 
4 -1e-07 -9.999999994736442e-08 -1e-07 1e-07 1.0000001 1e-07 0 2 2 -4 
5 9.999999900000001 -1e-07 -9.999999994736442e-08 10.0000001 1e-07 1.0000001 0 2 6 -5 
6 9.999999900000001 -9.999999994736442e-08 0.9999999000000001 10.0000001 1.0000001 1.0000001 0 2 5 -7 
7 9.999999900000001 0.9999999000000001 -9.999999994736442e-08 10.0000001 1.0000001 1.0000001 0 2 8 -7 
8 9.999999900000001 -9.999999994736442e-08 -1e-07 10.0000001 1.0000001 1e-07 0 2 6 -8 
9 -1.000000002804313e-07 -1e-07 -1e-07 10.0000001 1e-07 1e-07 0 2 2 -6 
10 -1.000000002804313e-07 -1e-07 0.9999999000000001 10.0000001 1e-07 1.0000001 0 2 1 -5 
11 -1.000000002804313e-07 0.9999999000000001 -1e-07 10.0000001 1.0000001 1e-07 0 2 4 -8 
12 -1.000000002804313e-07 0.9999999000000001 0.9999999000000001 10.0000001 1.0000001 1.0000001 0 2 3 -7 
1 -1e-07 -9.999999994736442e-08 -9.999999994736442e-08 1e-07 1.0000001 1.0000001 1 2 4 -1 4 3 -2 
2 9.999999900000001 -9.999999994736442e-08 -9.999999994736442e-08 10.0000001 1.0000001 1.0000001 0 4 -5 8 7 -6 
3 -1.000000002804313e-07 -1e-07 -9.999999994736442e-08 10.0000001 1e-07 1.0000001 0 4 -9 1 10 -5 
4 -1.000000002804313e-07 0.9999999000000001 -9.999999994736442e-08 10.0000001 1.0000001 1.0000001 0 4 -11 3 12 -7 
5 -1.000000002804313e-07 -9.999999994736442e-08 -1e-07 10.0000001 1.0000001 1e-07 1 3 4 -4 9 8 -11 
6 -1.000000002804313e-07 -9.999999994736442e-08 0.9999999000000001 10.0000001 1.0000001 1.0000001 0 4 -2 10 6 -12 
1 -1.000000002804313e-07 -9.999999994736442e-08 -9.999999994736442e-08 10.0000001 1.0000001 1.0000001 1 400 6 -1 2 -3 4 -5 6 
$EndEntities
$Nodes
27 371 1 371
0 1 0 1
1
0 0 1
0 2 0 1
2
0 0 0
0 3 0 1
3
0 1 1
0 4 0 1
4
0 1 0
0 5 0 1
5
10 0 1
0 6 0 1
6
10 0 0
0 7 0 1
7
10 1 1
0 8 0 1
8
10 1 0
1 1 0 2
9
10
0 0 0.3333333333333334
0 0 0.6666666666666667
1 2 0 2
11
12
0 0.3333333333333334 1
0 0.6666666666666667 1
1 3 0 2
13
14
0 1 0.3333333333333334
0 1 0.6666666666666667
1 4 0 2
15
16
0 0.3333333333333334 0
0 0.6666666666666667 0
1 5 0 2
17
18
10 0 0.3333333333333334
10 0 0.6666666666666667
1 6 0 2
19
20
10 0.3333333333333334 1
10 0.6666666666666667 1
1 7 0 2
21
22
10 1 0.3333333333333334
10 1 0.6666666666666667
1 8 0 2
23
24
10 0.3333333333333334 0
10 0.6666666666666667 0
1 9 0 24
25
26
27
28
29
30
31
32
33
34
35
36
37
38
39
40
41
42
43
44
45
46
47
48
0.4 0 0
0.8 0 0
1.2 0 0
1.6 0 0
2 0 0
2.4 0 0
2.8 0 0
3.2 0 0
3.6 0 0
4 0 0
4.4 0 0
4.8 0 0
5.2 0 0
5.6 0 0
6 0 0
6.4 0 0
6.8 0 0
7.2 0 0
7.6 0 0
8 0 0
8.4 0 0
8.800000000000001 0 0
9.199999999999999 0 0
9.6 0 0
1 10 0 24
49
50
51
52
53
54
55
56
57
58
59
60
61
62
63
64
65
66
67
68
69
70
71
72
0.4 0 1
0.8 0 1
1.2 0 1
1.6 0 1
2 0 1
2.4 0 1
2.8 0 1
3.2 0 1
3.6 0 1
4 0 1
4.4 0 1
4.8 0 1
5.2 0 1
5.6 0 1
6 0 1
6.4 0 1
6.8 0 1
7.2 0 1
7.6 0 1
8 0 1
8.4 0 1
8.800000000000001 0 1
9.199999999999999 0 1
9.6 0 1
1 11 0 24
73
74
75
76
77
78
79
80
81
82
83
84
85
86
87
88
89
90
91
92
93
94
95
96
0.4 1 0
0.8 1 0
1.2 1 0
1.6 1 0
2 1 0
2.4 1 0
2.8 1 0
3.2 1 0
3.6 1 0
4 1 0
4.4 1 0
4.8 1 0
5.2 1 0
5.6 1 0
6 1 0
6.4 1 0
6.8 1 0
7.2 1 0
7.6 1 0
8 1 0
8.4 1 0
8.800000000000001 1 0
9.199999999999999 1 0
9.6 1 0
1 12 0 24
97
98
99
100
101
102
103
104
105
106
107
108
109
110
111
112
113
114
115
116
117
118
119
120
0.4 1 1
0.8 1 1
1.2 1 1
1.6 1 1
2 1 1
2.4 1 1
2.8 1 1
3.2 1 1
3.6 1 1
4 1 1
4.4 1 1
4.8 1 1
5.2 1 1
5.6 1 1
6 1 1
6.4 1 1
6.8 1 1
7.2 1 1
7.6 1 1
8 1 1
8.4 1 1
8.800000000000001 1 1
9.199999999999999 1 1
9.6 1 1
2 1 0 8
121
122
123
124
125
126
127
128
0 0.5 0.704808293703483
0 0.5 0.2949493752848216
0 0.7525600817161049 0.4999596114980507
0 0.2474399182838952 0.4999596114980507
0 0.7576802451483146 0.7576802451483146
0 0.2423197548516855 0.2423197548516855
0 0.2423197548516856 0.7576802451483144
0 0.7576802451483147 0.2423197548516856
2 2 0 8
129
130
131
132
133
134
135
136
10 0.5 0.704808293703483
10 0.5 0.2949493752848216
10 0.7525600817161049 0.4999596114980507
10 0.2474399182838952 0.4999596114980507
10 0.7576802451483146 0.7576802451483146
10 0.2423197548516855 0.2423197548516855
10 0.2423197548516856 0.7576802451483144
10 0.7576802451483147 0.2423197548516856
2 3 0 54
137
138
139
140
141
142
143
144
145
146
147
148
149
150
151
152
153
154
155
156
157
158
159
160
161
162
163
164
165
166
167
168
169
170
171
172
173
174
175
176
177
178
179
180
181
182
183
184
185
186
187
188
189
190
0.2874970480943322 0 0.5043720144568871
9.712502951905664 0 0.4956279855431125
9 0 0.6535898384862258
5 0 0.6535898384862251
7.000000000000003 0 0.6535898384862251
4.2 0 0.6535898384862249
5.7573064973213 0 0.6215052771984758
7.785877925892732 0 0.6290691206464576
3.066666666666666 0 0.6666666666666664
1.4 0 0.6535898384862247
2.2 0 0.3464101615137753
6.614122074107268 0 0.3709308793535406
8.15528905816312 0 0.3749917631101277
4.600000000000001 0 0.346410161513775
5.389683088817085 0 0.3565822069649861
1.070779894759814 0 0.3309585599865162
3.866666666666666 0 0.3333333333333331
7.398970694307051 0 0.3576333770265936
8.63630622527343 0 0.3825778087438599
2.600000000000001 0 0.6535898384862234
6.238611870025633 0 0.6204247281344775
1.733333333333333 0 0.3333333333333333
3.399999999999999 0 0.3464101615137753
0.624679368558886 0 0.3321615214328726
9.375320631441115 0 0.6678384785671256
0.5607599153397425 0 0.7184687484101986
9.439240084660254 0 0.2815312515898011
9.05367463587795 0 0.3210005511078686
4.600000000000001 0 0.730717967697245
5.389397917227677 0 0.7263354645299374
6.610546788826581 0 0.7289890891948487
7.396969724039957 0 0.7280584672318553
4.997936617763418 0 0.2713164413929972
7.002618553682865 0 0.2764308189732719
4.213333333333334 0 0.2666666666666666
5.999999999999996 0 0.3573951501866078
8.400000000000006 0 0.6426048498133911
3.744444444444444 0 0.6728564408389526
2.944444444444444 0 0.3271435591610469
7.788027535672581 0 0.2723388521566358
0.9427031964430738 0 0.6725297780526353
1.855555555555555 0 0.6728564408389526
3.401133786848072 0 0.7208366086919622
1.40082264561863 0 0.2635763463612148
2.211111111111112 0 0.7345712881677903
2.588888888888889 0 0.2654287118322091
8.118305800331502 0 0.7174673207747471
6.281249660906745 0 0.2821986042430747
5.718730188238387 0 0.2812315398608221
8.680052305304747 0 0.7198074638850613
9.747616924614757 0 0.2295263571289504
0.2624352833306436 0 0.2339733738446186
0.2523830753852367 0 0.7704736428710492
9.737564716669356 0 0.7660266261553811
2 4 0 54
191
192
193
194
195
196
197
198
199
200
201
202
203
204
205
206
207
208
209
210
211
212
213
214
215
216
217
218
219
220
221
222
223
224
225
226
227
228
229
230
231
232
233
234
235
236
237
238
239
240
241
242
243
244
0.2874970480943322 1 0.5043720144568871
9.712502951905664 1 0.4956279855431125
9 1 0.6535898384862258
5 1 0.6535898384862251
7.000000000000003 1 0.6535898384862251
4.2 1 0.6535898384862249
5.7573064973213 1 0.6215052771984758
7.785877925892732 1 0.6290691206464576
1.4 1 0.6535898384862247
2.6 1 0.3464101615137753
3.333333333333333 1 0.3333333333333335
6.614122074107268 1 0.3709308793535406
8.15528905816312 1 0.3749917631101277
4.600000000000001 1 0.346410161513775
5.389683088817085 1 0.3565822069649861
1.070779894759814 1 0.3309585599865162
1.8 1 0.3464101615137753
2.2 1 0.6535898384862247
3 1 0.6535898384862247
7.398970694307051 1 0.3576333770265936
8.63630622527343 1 0.3825778087438599
3.799999999999999 1 0.3464101615137765
6.238611870025633 1 0.6204247281344775
0.624679368558886 1 0.3321615214328726
9.375320631441115 1 0.6678384785671256
0.5607599153397425 1 0.7184687484101986
9.439240084660254 1 0.2815312515898011
9.05367463587795 1 0.3210005511078686
4.600000000000001 1 0.730717967697245
5.389397917227677 1 0.7263354645299374
6.610546788826581 1 0.7289890891948487
7.396969724039957 1 0.7280584672318553
4.997936617763418 1 0.2713164413929972
7.002618553682865 1 0.2764308189732719
4.2 1 0.2692820323027553
5.999999999999996 1 0.3573951501866078
8.400000000000006 1 0.6426048498133911
2.2 1 0.2692820323027551
2.6 1 0.730717967697245
2.986666666666667 1 0.2666666666666667
7.788027535672581 1 0.2723388521566358
0.9427031964430738 1 0.6725297780526353
1.8 1 0.730717967697245
3.455555555555556 1 0.6728564408389529
1.414155978951963 1 0.2661917119973032
3.811111111111112 1 0.7345712881677908
8.118305800331502 1 0.7174673207747471
6.281249660906745 1 0.2821986042430747
5.718730188238387 1 0.2812315398608221
8.680052305304747 1 0.7198074638850613
9.747616924614757 1 0.2295263571289504
0.2624352833306436 1 0.2339733738446186
0.2523830753852367 1 0.7704736428710492
9.737564716669356 1 0.7660266261553811
2 5 0 53
245
246
247
248
249
250
251
252
253
254
255
256
257
258
259
260
261
262
263
264
265
266
267
268
269
270
271
272
273
274
275
276
277
278
279
280
281
282
283
284
285
286
287
288
289
290
291
292
293
294
295
296
297
0.2874970480943322 0.5043720144568871 0
9.712502951905664 0.4956279855431126 0
8.929220105240185 0.6690414400134841 0
4.2 0.6535898384862249 0
5 0.346410161513775 0
6.533333333333331 0.6666666666666657 0
7.400000000000003 0.346410161513775 0
5.8 0.6535898384862247 0
2.2 0.3464101615137753 0
3 0.3464101615137753 0
1 0.3464101615137753 0
8.199999999999998 0.6535898384862242 0
8.600000000000005 0.346410161513775 0
3.8 0.3464101615137753 0
1.814122074107269 0.6290691206464586 0
3.399999999999999 0.6535898384862247 0
2.6 0.6535898384862247 0
6.200000000000004 0.3464101615137753 0
6.999999999999993 0.6535898384862175 0
4.533333333333333 0.3333333333333329 0
5.466666666666666 0.3333333333333331 0
1.444710941836879 0.3749917631101291 0
7.733333333333333 0.6666666666666666 0
9.375320631441115 0.6678384785671269 0
0.6196240831749035 0.3381185761316013 0
9.439240084660256 0.2815312515898013 0
0.5434833672554535 0.720651355732673 0
7.855555555555554 0.3271435591610465 0
5.344444444444443 0.6728564408389526 0
9.057296803556925 0.3274702219473645 0
8.585844021048038 0.7338082880026967 0
4.655555555555555 0.6728564408389526 0
7.386666666666667 0.7333333333333318 0
6.655555555555555 0.3271435591610455 0
5 0.7128169987417077 0
4.186666666666667 0.2666666666666666 0
2.6 0.2692820323027551 0
1.2 0.6426048498133926 0
2.202824414821454 0.7258138241292917 0
5.813333333333333 0.2666666666666666 0
8.21111111111111 0.2654287118322091 0
3 0.730717967697245 0
6.186666666666667 0.7333333333333332 0
1.81176660318883 0.2700942090540726 0
3.399999999999999 0.2692820323027551 0
3.8 0.730717967697245 0
7.01111111111111 0.2654287118322076 0
0.898646450544482 0.6977102722662161 0
1.481694199668504 0.7174673207747503 0
0.2614242262538471 0.2351647847843644 0
0.2523830753852367 0.7704736428710494 0
9.737564716669354 0.7660266261553812 0
9.747616924614759 0.2295263571289501 0
2 6 0 55
298
299
300
301
302
303
304
305
306
307
308
309
310
311
312
313
314
315
316
317
318
319
320
321
322
323
324
325
326
327
328
329
330
331
332
333
334
335
336
337
338
339
340
341
342
343
344
345
346
347
348
349
350
351
352
0.2874970480943322 0.5043720144568871 1
9.712502951905664 0.4956279855431126 1
8.929220105240185 0.6690414400134841 1
4.957306497321301 0.6215052771984754 1
4.2 0.6535898384862249 1
6.599999999999995 0.6535898384862251 1
7.400000000000003 0.346410161513775 1
3 0.6535898384862247 1
5.833333333333333 0.331502501887862 1
2.2 0.3464101615137753 1
1 0.3464101615137753 1
8.199999999999998 0.6535898384862242 1
4.589683088817086 0.3565822069649859 1
8.600000000000005 0.346410161513775 1
3.8 0.3464101615137753 1
1.814122074107269 0.6290691206464586 1
6.999999999999993 0.6535898384862175 1
5.359551082886883 0.6631500712308476 1
2.6 0.6535898384862247 1
6.247455407440599 0.37636505714068 1
1.444710941836879 0.3749917631101291 1
3.466666666666667 0.6666666666666666 1
7.733333333333333 0.6666666666666666 1
9.375320631441115 0.6678384785671269 1
0.6196240831749034 0.3381185761316013 1
9.439240084660256 0.2815312515898013 1
0.5434833672554534 0.720651355732673 1
7.855555555555554 0.3271435591610465 1
9.057296803556925 0.3274702219473645 1
8.585844021048038 0.7338082880026967 1
4.589397917227678 0.7263354645299372 1
7.386666666666667 0.7333333333333318 1
5.199999999999998 0.3573951501866064 1
6.674575901240098 0.3299565704021228 1
4.197936617763417 0.2713164413929972 1
5.999999999999996 0.6426048498133922 1
3.344444444444444 0.3271435591610474 1
2.6 0.2592389376599236 1
1.2 0.6426048498133926 1
2.202824414821454 0.7258138241292917 1
8.21111111111111 0.2654287118322091 1
1.81176660318883 0.2700942090540726 1
2.945767195767196 0.3100511221086313 1
3.813333333333333 0.7333333333333334 1
7.014915180248019 0.265991314080423 1
0.8986464505444816 0.697710272266216 1
5.494555215724543 0.3035099293990593 1
6.280864927911679 0.7193546394241919 1
1.481694199668504 0.7174673207747503 1
4.918730188238386 0.2812315398608215 1
5.704640845353051 0.6966409884968788 1
0.2614242262538471 0.2351647847843643 1
0.2523830753852366 0.7704736428710495 1
9.737564716669354 0.7660266261553812 1
9.747616924614759 0.2295263571289501 1
3 1 0 19
353
354
355
356
357
358
359
360
361
362
363
364
365
366
367
368
369
370
371
5.892500875627415 0.5 0.5
0.4995186184293506 0.513056399873784 0.513056399873784
9.496803957072663 0.4894976852901614 0.4894976852901614
1.103510754756522 0.5 0.5
8.502299637514016 0.5 0.4981840782161862
5.371424491645925 0.4624477410375802 0.5457013975444707
6.434596145904989 0.5011561346423854 0.5067258503124068
4.878250396512695 0.5461857158926579 0.4631047343166028
1.636575186000493 0.4916222127402091 0.5161866747925613
7.961289535350409 0.5047328424219824 0.5
3.972576730787348 0.5379663393001601 0.5357097441900263
7.171175514880728 0.4642501460087581 0.4616038649767499
2.132967557426651 0.5412520518084833 0.4614359353944898
3.475832269502259 0.460488064441283 0.5333954768069782
2.99022764919408 0.5414782582868379 0.4602352741375013
9.000097617680403 0.5164182427074993 0.5301323408540444
4.431717995194801 0.5923755146829506 0.5837428528001463
2.561572636703703 0.4191579423486723 0.4199856660783284
7.55353024234544 0.6122841296125058 0.6074516914569967
$EndNodes
$Elements
3 1155 1 1155
2 1 2 26
1 10 1 127 
2 1 11 127 
3 2 9 126 
4 15 2 126 
5 12 3 125 
6 3 14 125 
7 13 4 128 
8 4 16 128 
9 9 10 124 
10 9 124 126 
11 124 10 127 
12 11 12 121 
13 11 121 127 
14 121 12 125 
15 14 13 123 
16 123 13 128 
17 14 123 125 
18 16 15 122 
19 122 15 126 
20 16 122 128 
21 122 121 123 
22 121 122 124 
23 123 121 125 
24 121 124 127 
25 122 123 128 
26 124 122 126 
2 5 2 160
27 2 15 294 
28 25 2 294 
29 16 4 295 
30 4 73 295 
31 23 6 297 
32 6 48 297 
33 8 24 296 
34 96 8 296 
35 15 16 245 
36 15 245 294 
37 245 16 295 
38 24 23 246 
39 246 23 297 
40 24 246 296 
41 26 25 269 
42 269 25 294 
43 27 26 255 
44 255 26 269 
45 28 27 266 
46 27 255 266 
47 29 28 288 
48 28 266 288 
49 30 29 253 
50 253 29 288 
51 31 30 281 
52 30 253 281 
53 32 31 254 
54 254 31 281 
55 33 32 289 
56 32 254 289 
57 34 33 258 
58 258 33 289 
59 35 34 280 
60 34 258 280 
61 36 35 264 
62 264 35 280 
63 37 36 249 
64 249 36 264 
65 38 37 265 
66 37 249 265 
67 39 38 284 
68 38 265 284 
69 40 39 262 
70 262 39 284 
71 41 40 278 
72 40 262 278 
73 42 41 291 
74 41 278 291 
75 43 42 251 
76 251 42 291 
77 44 43 272 
78 43 251 272 
79 45 44 285 
80 44 272 285 
81 46 45 257 
82 257 45 285 
83 47 46 274 
84 46 257 274 
85 48 47 270 
86 270 47 274 
87 48 270 297 
88 73 74 271 
89 73 271 295 
90 74 75 292 
91 271 74 292 
92 75 76 293 
93 75 282 292 
94 282 75 293 
95 76 77 259 
96 76 259 293 
97 77 78 283 
98 259 77 283 
99 78 79 261 
100 78 261 283 
101 79 80 286 
102 261 79 286 
103 80 81 260 
104 80 260 286 
105 81 82 290 
106 260 81 290 
107 82 83 248 
108 82 248 290 
109 83 84 276 
110 248 83 276 
111 84 85 279 
112 276 84 279 
113 85 86 273 
114 85 273 279 
115 86 87 252 
116 86 252 273 
117 87 88 287 
118 252 87 287 
119 88 89 250 
120 88 250 287 
121 89 90 263 
122 250 89 263 
123 90 91 277 
124 263 90 277 
125 91 92 267 
126 91 267 277 
127 92 93 256 
128 92 256 267 
129 93 94 275 
130 256 93 275 
131 94 95 247 
132 94 247 275 
133 95 96 268 
134 247 95 268 
135 268 96 296 
136 269 245 271 
137 245 269 294 
138 271 245 295 
139 268 246 270 
140 246 268 296 
141 270 246 297 
142 257 247 274 
143 247 257 275 
144 247 268 274 
145 258 248 280 
146 248 258 290 
147 264 248 276 
148 248 264 280 
149 249 264 276 
150 265 249 273 
151 273 249 279 
152 249 276 279 
153 262 250 278 
154 250 262 287 
155 250 263 278 
156 251 263 277 
157 263 251 291 
158 251 267 272 
159 267 251 277 
160 252 262 284 
161 262 252 287 
162 252 265 273 
163 265 252 284 
164 253 259 283 
165 259 253 288 
166 253 261 281 
167 261 253 283 
168 260 254 286 
169 254 260 289 
170 261 254 281 
171 254 261 286 
172 266 255 282 
173 255 269 292 
174 282 255 292 
175 257 256 275 
176 256 257 285 
177 267 256 272 
178 272 256 285 
179 260 258 289 
180 258 260 290 
181 266 259 288 
182 259 266 293 
183 278 263 291 
184 266 282 293 
185 268 270 274 
186 269 271 292 
3 1 4 969
187 280 363 171 369 
188 331 141 359 364 
189 331 359 314 364 
190 202 359 263 364 
191 176 362 272 371 
192 314 359 195 364 
193 195 359 202 364 
194 331 141 167 359 
195 148 278 359 364 
196 202 263 224 364 
197 278 263 359 364 
198 148 359 141 364 
199 124 137 126 354 
200 134 297 187 355 
201 278 170 291 364 
202 350 125 243 354 
203 241 296 136 355 
204 135 190 352 355 
205 349 189 127 354 
206 280 171 264 369 
207 128 295 242 354 
208 195 202 224 364 
209 131 192 136 355 
210 141 148 167 359 
211 293 235 356 361 
212 294 126 188 354 
213 148 170 278 364 
214 127 137 124 354 
215 128 245 295 354 
216 221 202 195 359 
217 293 235 282 356 
218 133 351 244 355 
219 303 314 331 359 
220 135 352 299 355 
221 192 241 136 355 
222 269 354 160 356 
223 189 137 127 354 
224 123 128 191 354 
225 331 342 141 364 
226 316 365 229 370 
227 251 176 272 371 
228 144 362 176 371 
229 228 365 283 370 
230 252 353 239 358 
231 126 137 188 354 
232 132 134 138 355 
233 177 354 322 356 
234 164 163 270 355 
235 279 273 223 360 
236 134 246 297 355 
237 134 187 138 355 
238 123 191 125 354 
239 350 298 125 354 
240 292 354 269 356 
241 292 214 354 356 
242 327 357 240 368 
243 154 176 251 371 
244 331 314 342 364 
245 234 366 319 367 
246 202 250 263 359 
247 191 243 125 354 
248 341 236 363 366 
249 293 282 266 356 
250 270 187 297 355 
251 343 322 354 356 
252 185 353 265 358 
253 160 354 177 356 
254 255 269 160 356 
255 242 191 128 354 
256 133 131 129 355 
257 171 363 142 369 
258 122 124 126 354 
259 159 366 289 367 
260 162 189 349 354 
261 280 248 363 369 
262 161 323 355 368 
263 180 266 356 361 
264 241 217 296 355 
265 323 352 190 355 
266 324 350 243 354 
267 200 229 365 370 
268 317 353 333 359 
269 272 362 267 371 
270 271 242 295 354 
271 343 354 232 356 
272 250 278 263 359 
273 232 354 214 356 
274 329 364 222 371 
275 316 229 367 370 
276 178 361 339 365 
277 197 239 353 358 
278 158 288 361 365 
279 318 356 336 361 
280 308 177 322 356 
281 128 122 245 354 
282 293 356 266 361 
283 265 185 284 353 
284 173 357 149 362 
285 345 317 333 359 
286 172 353 157 359 
287 135 299 129 355 
288 173 149 183 362 
289 169 358 249 360 
290 131 136 130 355 
291 213 353 226 359 
292 346 318 336 361 
293 148 141 170 364 
294 296 130 136 355 
295 129 132 135 355 
296 330 358 140 360 
297 252 239 273 358 
298 144 176 154 371 
299 343 324 216 354 
300 172 157 184 359 
301 203 357 227 362 
302 127 124 121 354 
303 322 177 162 354 
304 213 226 238 359 
305 264 171 150 369 
306 123 122 128 354 
307 343 308 322 356 
308 255 292 269 356 
309 330 140 347 360 
310 149 357 285 362 
311 269 294 188 354 
312 237 203 227 362 
313 290 363 212 366 
314 180 356 146 361 
315 150 165 360 369 
316 205 273 239 358 
317 270 163 187 355 
318 270 274 164 355 
319 274 164 355 368 
320 313 339 361 365 
321 307 181 365 370 
322 160 152 255 356 
323 310 360 165 369 
324 245 271 295 354 
325 305 234 319 367 
326 132 130 134 355 
327 218 268 217 355 
328 246 134 130 355 
329 258 363 290 366 
330 323 299 352 355 
331 241 192 217 355 
332 330 301 358 360 
333 218 268 355 368 
334 162 137 189 354 
335 232 343 216 354 
336 307 335 181 370 
337 125 298 121 354 
338 348 353 306 358 
339 200 228 283 370 
340 329 195 222 364 
341 310 347 165 360 
342 327 240 300 368 
343 153 171 280 363 
344 215 244 351 355 
345 216 324 243 354 
346 200 365 228 370 
347 341 319 236 366 
348 246 130 296 355 
349 123 125 121 354 
350 200 367 229 370 
351 161 326 323 368 
352 211 357 247 368 
353 211 275 247 357 
354 156 181 335 370 
355 287 353 262 359 
356 278 291 263 364 
357 199 356 235 361 
358 265 353 252 358 
359 334 366 145 367 
360 313 361 233 365 
361 316 307 365 370 
362 212 363 236 366 
363 277 364 251 371 
364 316 367 340 370 
365 251 272 267 371 
366 309 357 338 362 
367 251 364 154 371 
368 186 357 311 368 
369 289 366 260 367 
370 160 162 177 354 
371 256 285 357 362 
372 197 353 348 358 
373 150 360 264 369 
374 233 337 313 365 
375 347 140 165 360 
376 292 206 214 356 
377 156 340 367 370 
378 154 364 168 371 
379 330 347 301 360 
380 274 355 268 368 
381 317 157 353 359 
382 257 357 155 368 
383 155 357 186 368 
384 219 360 328 369 
385 140 358 169 360 
386 280 264 248 369 
387 234 305 209 367 
388 292 214 271 354 
389 316 340 335 370 
390 273 279 249 360 
391 218 217 215 355 
392 194 220 315 358 
393 316 307 337 365 
394 273 249 358 360 
395 254 159 289 367 
396 266 152 180 356 
397 318 146 356 361 
398 157 306 317 353 
399 215 218 355 368 
400 332 310 165 369 
401 143 353 185 358 
402 194 358 301 360 
403 270 297 246 355 
404 138 187 163 355 
405 301 328 219 360 
406 144 154 168 371 
407 155 164 274 368 
408 282 235 206 356 
409 220 197 348 358 
410 145 366 159 367 
411 200 229 208 365 
412 344 348 306 358 
413 161 355 164 368 
414 269 292 271 354 
415 324 298 350 354 
416 158 361 178 365 
417 220 348 315 358 
418 332 165 142 369 
419 171 142 150 369 
420 169 151 249 358 
421 259 361 288 365 
422 191 216 243 354 
423 267 362 231 371 
424 158 147 288 365 
425 277 251 267 371 
426 315 301 194 358 
427 201 366 234 367 
428 153 363 258 366 
429 208 337 233 365 
430 307 178 339 365 
431 197 205 239 358 
432 332 142 363 369 
433 247 357 257 368 
434 160 177 152 356 
435 206 232 214 356 
436 257 155 274 368 
437 269 245 294 354 
438 229 305 316 367 
439 203 275 211 357 
440 260 290 212 366 
441 209 305 229 367 
442 240 357 211 368 
443 214 232 216 354 
444 274 270 268 355 
445 285 149 155 357 
446 156 335 340 370 
447 164 161 163 355 
448 269 188 160 354 
449 322 162 349 354 
450 205 358 194 360 
451 215 355 321 368 
452 318 146 308 356 
453 225 363 248 369 
454 328 360 310 369 
455 327 227 240 357 
456 326 139 186 368 
457 213 333 197 353 
458 172 284 185 353 
459 156 367 175 370 
460 181 178 307 365 
461 316 335 307 370 
462 144 168 304 371 
463 188 137 160 354 
464 284 172 262 353 
465 256 275 203 357 
466 147 365 181 370 
467 264 360 276 369 
468 157 143 306 353 
469 268 296 217 355 
470 236 319 234 366 
471 309 227 327 357 
472 233 361 207 365 
473 286 230 261 367 
474 315 330 301 358 
475 299 321 351 355 
476 252 287 226 353 
477 277 210 224 364 
478 210 364 277 371 
479 266 255 152 356 
480 261 200 283 370 
481 156 340 145 367 
482 323 190 161 355 
483 214 242 271 354 
484 168 342 304 364 
485 343 322 324 354 
486 321 215 351 355 
487 273 265 252 358 
488 205 194 223 360 
489 173 338 311 357 
490 195 329 314 364 
491 168 141 342 364 
492 256 357 203 362 
493 341 363 312 366 
494 215 192 244 355 
495 339 146 318 361 
496 325 362 144 371 
497 212 236 234 366 
498 326 186 311 368 
499 168 364 304 371 
500 260 366 201 367 
501 145 334 179 366 
502 248 225 290 363 
503 150 142 165 369 
504 257 285 155 357 
505 228 259 283 365 
506 313 307 339 365 
507 174 363 153 366 
508 275 257 247 357 
509 306 333 317 353 
510 159 258 289 366 
511 258 153 280 363 
512 212 290 225 363 
513 169 249 150 360 
514 277 224 263 364 
515 303 345 221 359 
516 175 159 254 367 
517 340 334 145 367 
518 317 331 167 359 
519 265 284 252 353 
520 308 146 177 356 
521 293 207 235 361 
522 249 151 265 358 
523 329 304 364 371 
524 139 155 186 368 
525 298 322 349 354 
526 131 130 129 355 
527 339 178 146 361 
528 212 201 260 366 
529 166 140 330 358 
530 218 247 268 368 
531 175 145 159 367 
532 151 185 265 358 
533 201 230 286 367 
534 301 310 328 360 
535 157 317 167 359 
536 124 122 121 354 
537 130 132 129 355 
538 210 277 267 371 
539 222 364 210 371 
540 287 250 238 359 
541 199 336 232 356 
542 220 205 197 358 
543 345 213 221 359 
544 336 318 308 356 
545 266 282 255 356 
546 268 246 296 355 
547 260 258 290 366 
548 267 256 231 362 
549 121 122 123 354 
550 325 338 183 362 
551 180 158 266 361 
552 214 191 242 354 
553 210 267 231 371 
554 320 198 237 362 
555 156 145 175 367 
556 190 138 161 355 
557 194 205 220 358 
558 204 225 248 369 
559 253 288 147 365 
560 159 153 258 366 
561 325 144 304 371 
562 152 146 180 356 
563 326 161 139 368 
564 193 215 321 368 
565 165 140 150 360 
566 266 158 288 361 
567 273 249 265 358 
568 278 184 148 359 
569 247 274 268 368 
570 219 194 301 360 
571 254 289 260 367 
572 231 256 203 362 
573 300 193 321 368 
574 158 178 147 365 
575 150 249 264 360 
576 247 257 274 368 
577 309 320 237 362 
578 332 142 312 363 
579 259 207 361 365 
580 154 291 170 364 
581 319 104 234 305 
582 278 262 184 359 
583 233 346 199 361 
584 313 346 233 361 
585 145 179 159 366 
586 283 365 253 370 
587 161 164 139 368 
588 143 166 344 358 
589 211 247 218 368 
590 153 142 171 363 
591 196 341 236 363 
592 305 340 316 367 
593 264 276 248 369 
594 301 347 310 360 
595 348 197 333 353 
596 181 147 178 365 
597 336 343 232 356 
598 213 197 226 353 
599 157 172 143 353 
600 312 363 174 366 
601 340 305 334 367 
602 260 201 286 367 
603 200 261 230 367 
604 155 149 173 357 
605 227 203 211 357 
606 186 173 311 357 
607 261 367 200 370 
608 239 252 226 353 
609 182 175 281 370 
610 201 234 209 367 
611 272 149 285 362 
612 164 155 274 46 
613 271 245 269 354 
614 200 208 228 365 
615 276 279 223 360 
616 174 179 312 366 
617 179 334 312 366 
618 329 304 314 364 
619 63 306 317 157 
620 240 211 193 368 
621 195 210 222 364 
622 235 199 206 356 
623 337 307 313 365 
624 332 363 302 369 
625 209 229 200 367 
626 258 280 248 363 
627 140 151 169 358 
628 77 259 283 228 
629 254 175 367 370 
630 300 240 193 368 
631 318 339 52 146 
632 276 204 248 369 
633 169 150 140 360 
634 162 160 137 354 
635 104 209 234 305 
636 176 149 272 362 
637 182 281 253 370 
638 198 231 362 371 
639 282 206 292 356 
640 306 63 143 157 
641 93 211 203 275 
642 151 143 185 358 
643 212 234 201 366 
644 323 321 299 355 
645 259 207 293 361 
646 258 260 289 366 
647 276 360 204 369 
648 259 228 207 365 
649 341 312 319 366 
650 196 363 225 369 
651 219 108 328 301 
652 285 155 149 45 
653 144 304 168 67 
654 342 314 304 364 
655 217 192 215 355 
656 257 274 155 46 
657 51 308 318 146 
658 107 219 328 369 
659 195 224 210 364 
660 228 283 78 200 
661 174 312 142 363 
662 254 281 175 370 
663 348 344 315 358 
664 155 139 164 368 
665 32 159 289 254 
666 348 333 306 353 
667 249 169 37 151 
668 154 291 42 170 
669 163 164 270 47 
670 258 248 290 363 
671 256 93 203 275 
672 252 262 287 353 
673 89 224 202 263 
674 266 288 259 361 
675 180 146 158 361 
676 338 309 311 357 
677 178 52 339 146 
678 238 250 202 359 
679 325 183 144 362 
680 215 193 218 368 
681 155 285 257 45 
682 236 196 106 341 
683 169 36 150 249 
684 204 360 219 369 
685 33 159 258 289 
686 114 329 195 222 
687 256 285 257 357 
688 197 111 333 213 
689 146 51 308 177 
690 254 367 261 370 
691 287 262 250 359 
692 281 30 182 253 
693 198 362 320 371 
694 259 293 266 361 
695 324 322 298 354 
696 261 286 79 230 
697 142 58 332 312 
698 197 239 226 353 
699 172 185 143 353 
700 207 199 235 361 
701 186 155 173 357 
702 227 211 240 357 
703 248 83 225 204 
704 270 246 268 355 
705 330 344 166 358 
706 325 309 338 362 
707 256 272 285 362 
708 25 294 188 269 
709 216 191 214 354 
710 253 259 288 365 
711 161 138 163 355 
712 291 154 251 364 
713 255 282 292 356 
714 336 308 343 356 
715 309 327 311 357 
716 81 260 290 212 
717 284 262 252 353 
718 152 177 146 356 
719 153 174 142 363 
720 159 174 153 366 
721 254 260 286 367 
722 253 365 147 370 
723 179 57 312 334 
724 256 257 275 357 
725 208 233 207 365 
726 144 304 67 325 
727 265 249 37 151 
728 267 92 231 256 
729 147 181 156 370 
730 174 179 57 312 
731 341 196 302 363 
732 326 300 321 368 
733 250 89 202 263 
734 311 300 326 368 
735 345 303 317 359 
736 64 317 167 157 
737 244 351 120 215 
738 261 283 253 370 
739 207 233 199 361 
740 230 209 200 367 
741 152 26 160 255 
742 92 203 231 256 
743 153 33 159 258 
744 264 150 36 249 
745 176 144 149 362 
746 159 32 175 254 
747 229 209 103 305 
748 253 147 182 370 
749 313 233 101 337 
750 314 303 113 221 
751 143 151 166 358 
752 325 320 362 371 
753 119 321 300 193 
754 193 211 218 368 
755 315 109 220 194 
756 286 261 254 367 
757 157 167 148 359 
758 269 160 26 255 
759 77 259 228 207 
760 254 261 281 370 
761 332 59 165 310 
762 317 331 64 167 
763 276 223 204 360 
764 166 151 140 358 
765 316 229 103 305 
766 213 202 221 359 
767 276 264 249 360 
768 317 303 331 359 
769 219 108 301 194 
770 339 318 313 361 
771 183 149 144 362 
772 164 274 270 47 
773 231 203 198 362 
774 107 328 302 369 
775 199 232 206 356 
776 59 165 142 332 
777 232 199 99 336 
778 260 81 201 212 
779 83 248 276 204 
780 58 142 174 312 
781 184 157 148 359 
782 102 208 229 337 
783 233 208 101 337 
784 283 261 78 200 
785 290 82 212 225 
786 82 290 248 225 
787 279 85 223 273 
788 316 102 229 337 
789 119 321 193 215 
790 178 158 146 361 
791 238 202 213 359 
792 262 278 250 359 
793 313 318 346 361 
794 201 209 230 367 
795 42 251 291 154 
796 107 196 219 369 
797 29 158 147 288 
798 195 314 113 221 
799 159 179 174 366 
800 319 236 105 341 
801 276 84 223 279 
802 329 222 115 371 
803 198 203 237 362 
804 251 43 272 176 
805 320 309 325 362 
806 267 272 256 362 
807 279 276 249 360 
808 309 320 116 237 
809 114 329 314 195 
810 158 28 180 266 
811 139 186 70 326 
812 109 315 301 194 
813 204 194 219 360 
814 168 154 141 364 
815 30 147 182 253 
816 28 158 288 266 
817 43 251 154 176 
818 200 261 79 230 
819 341 196 106 302 
820 90 210 224 277 
821 66 342 168 141 
822 177 50 322 162 
823 326 186 70 311 
824 284 39 262 172 
825 226 87 287 252 
826 111 345 333 213 
827 263 251 277 364 
828 237 320 116 198 
829 332 312 302 363 
830 338 69 173 311 
831 327 309 117 227 
832 182 156 175 370 
833 307 54 181 335 
834 225 196 212 363 
835 228 208 207 365 
836 277 224 90 263 
837 66 342 304 168 
838 253 283 259 365 
839 41 291 278 170 
840 239 86 252 273 
841 297 187 270 48 
842 275 94 211 247 
843 196 302 363 369 
844 156 181 54 335 
845 160 25 188 269 
846 175 31 182 281 
847 331 342 65 141 
848 141 65 331 167 
849 288 147 29 253 
850 140 330 61 166 
851 286 80 230 201 
852 330 315 344 358 
853 302 312 341 363 
854 40 278 262 184 
855 141 154 170 364 
856 285 272 44 149 
857 196 236 212 363 
858 291 251 263 364 
859 176 44 272 149 
860 321 120 351 215 
861 198 115 222 371 
862 216 98 324 343 
863 326 71 161 323 
864 50 322 308 177 
865 244 22 133 131 
866 190 135 18 132 
867 223 194 204 360 
868 147 156 182 370 
869 312 334 319 366 
870 86 239 205 273 
871 148 41 278 170 
872 184 40 278 148 
873 153 171 34 280 
874 35 171 264 280 
875 320 329 115 371 
876 295 16 245 128 
877 12 125 350 298 
878 332 302 310 369 
879 333 348 111 197 
880 281 261 253 370 
881 85 205 223 273 
882 134 246 23 297 
883 105 234 236 319 
884 19 135 352 299 
885 107 302 196 369 
886 217 218 95 268 
887 94 218 211 247 
888 235 75 282 206 
889 97 350 243 324 
890 126 294 15 245 
891 11 298 349 127 
892 221 345 112 213 
893 198 210 231 371 
894 98 216 232 343 
895 187 163 270 48 
896 80 286 260 201 
897 175 31 281 254 
898 223 84 276 204 
899 204 196 225 369 
900 247 95 218 268 
901 156 55 340 335 
902 349 49 189 162 
903 76 293 207 235 
904 20 299 351 133 
905 71 161 139 326 
906 145 156 55 340 
907 217 241 296 96 
908 190 72 352 323 
909 138 190 18 132 
910 22 244 192 131 
911 62 344 306 143 
912 325 304 320 371 
913 87 226 239 252 
914 198 320 115 371 
915 172 39 262 184 
916 186 173 69 311 
917 34 153 280 258 
918 150 35 171 264 
919 344 62 166 143 
920 237 117 309 227 
921 343 232 99 336 
922 179 145 56 334 
923 122 126 15 245 
924 298 11 121 127 
925 220 110 348 197 
926 347 330 61 140 
927 303 345 112 221 
928 243 216 97 324 
929 299 20 129 133 
930 328 310 302 369 
931 346 99 199 336 
932 16 122 245 128 
933 125 12 121 298 
934 347 60 165 140 
935 110 348 315 220 
936 206 74 292 214 
937 49 349 322 162 
938 130 246 23 134 
939 135 19 129 299 
940 204 219 196 369 
941 271 73 295 242 
942 100 199 233 346 
943 293 259 76 207 
944 96 296 217 268 
945 282 293 75 235 
946 172 284 39 185 
947 87 238 226 287 
948 72 190 161 323 
949 117 327 227 240 
950 173 183 69 338 
951 317 64 63 157 
952 340 56 145 334 
953 74 271 292 214 
954 242 271 73 214 
955 300 327 118 240 
956 222 210 198 371 
957 118 300 240 193 
958 329 320 304 371 
959 38 284 265 185 
960 313 100 233 346 
961 347 165 60 310 
962 75 292 282 206 
963 202 238 88 250 
964 183 68 338 325 
965 250 238 88 287 
966 330 344 61 166 
967 68 183 144 325 
968 318 52 51 146 
969 306 63 62 143 
970 151 38 265 185 
971 115 116 320 198 
972 12 11 121 298 
973 15 16 122 245 
974 21 22 192 131 
975 18 17 138 132 
976 13 14 123 191 
977 124 10 9 137 
978 109 301 108 194 
979 129 19 20 299 
980 246 23 24 130 
981 300 118 119 193 
982 345 111 112 213 
983 88 89 202 250 
984 110 111 348 197 
985 180 28 27 266 
986 6 187 134 297 
987 125 243 3 350 
988 70 71 139 326 
989 67 68 144 325 
990 40 41 278 148 
991 45 257 155 46 
992 259 77 76 207 
993 49 322 50 162 
994 189 1 349 127 
995 136 241 8 296 
996 5 135 190 352 
997 128 295 4 242 
998 37 38 265 151 
999 51 50 308 177 
1000 86 205 85 273 
1001 93 94 211 275 
1002 112 113 303 221 
1003 152 27 26 255 
1004 92 93 203 256 
1005 160 26 25 269 
1006 149 44 285 45 
1007 234 105 104 319 
1008 114 314 113 195 
1009 42 43 251 154 
1010 2 294 126 188 
1011 153 34 33 258 
1012 81 80 260 201 
1013 150 36 35 264 
1014 133 351 7 244 
1015 104 103 209 305 
1016 71 72 161 323 
1017 101 100 233 313 
1018 261 79 78 200 
1019 196 107 106 302 
1020 239 86 87 252 
1021 99 98 232 343 
1022 69 70 186 311 
1023 98 97 216 324 
1024 56 57 179 334 
1025 315 109 110 220 
1026 274 164 46 47 
1027 47 270 163 48 
1028 175 32 31 254 
1029 83 276 84 204 
1030 292 75 74 206 
1031 321 119 120 215 
1032 309 116 117 237 
1033 39 40 262 184 
1034 271 74 73 214 
1035 94 95 218 247 
1036 90 91 210 277 
1037 95 96 217 268 
1038 59 60 165 310 
1039 65 64 331 167 
1040 85 223 84 279 
1041 342 66 65 141 
1042 60 347 61 140 
1043 57 58 174 312 
1044 17 6 187 134 
1045 8 21 241 136 
1046 189 10 1 127 
1047 3 14 243 125 
1048 30 29 147 253 
1049 327 117 118 240 
1050 29 28 158 288 
1051 134 23 6 297 
1052 4 16 295 128 
1053 135 5 19 352 
1054 125 3 12 350 
1055 91 92 231 267 
1056 307 54 53 181 
1057 55 56 145 340 
1058 126 9 2 188 
1059 128 4 13 242 
1060 18 5 135 190 
1061 133 7 22 244 
1062 103 102 229 316 
1063 339 53 52 178 
1064 100 99 199 346 
1065 38 39 284 185 
1066 294 15 2 126 
1067 1 11 349 127 
1068 208 102 101 337 
1069 136 8 24 296 
1070 7 20 351 133 
1071 344 62 61 166 
1072 272 43 44 176 
1073 304 66 168 67 
1074 350 243 3 97 
1075 297 6 187 48 
1076 159 33 32 289 
1077 58 59 142 332 
1078 83 82 248 225 
1079 87 88 238 287 
1080 169 37 36 249 
1081 68 69 183 338 
1082 89 90 224 263 
1083 290 82 81 212 
1084 1 349 49 189 
1085 171 35 34 280 
1086 295 73 4 242 
1087 296 241 8 96 
1088 5 190 72 352 
1089 55 156 54 335 
1090 293 76 75 235 
1091 106 105 236 341 
1092 286 80 79 230 
1093 219 108 107 328 
1094 31 30 182 281 
1095 329 114 115 222 
1096 78 77 283 228 
1097 291 41 42 170 
1098 2 25 294 188 
1099 351 120 7 244 
1100 359 172 262 184 
1101 359 262 172 353 
1102 359 226 287 353 
1103 359 287 226 238 
1104 362 173 338 183 
1105 362 338 173 357 
1106 333 359 213 345 
1107 213 359 333 353 
1108 227 362 309 237 
1109 309 362 227 357 
1110 336 361 199 346 
1111 199 361 336 356 
1112 319 367 334 305 
1113 334 367 319 366 
1114 314 221 359 303 
1115 359 221 314 195 
1116 360 205 273 223 
1117 360 273 205 358 
1118 368 323 321 326 
1119 368 321 323 355 
1120 299 133 355 351 
1121 355 133 299 129 
1122 296 130 24 136 
1123 24 130 296 246 
1124 298 127 354 349 
1125 354 127 298 121 
1126 126 245 354 294 
1127 354 245 126 122 
1128 368 327 311 300 
1129 368 311 327 357 
1130 229 337 365 316 
1131 365 337 229 208 
1132 306 358 143 344 
1133 143 358 306 353 
1134 137 126 9 124 
1135 137 9 126 188 
1136 191 128 13 242 
1137 191 13 128 123 
1138 244 131 355 192 
1139 355 131 244 133 
1140 190 132 355 135 
1141 355 132 190 138 
1142 266 152 27 180 
1143 266 27 152 255 
1144 134 138 17 132 
1145 134 17 138 187 
1146 192 136 21 131 
1147 21 136 192 241 
1148 125 191 14 243 
1149 125 14 191 123 
1150 137 127 10 189 
1151 137 10 127 124 
1152 267 210 91 277 
1153 267 91 210 231 
1154 178 307 53 181 
1155 178 53 307 339 
$EndElements
