$MeshFormat
4.1 0 8
$EndMeshFormat
$PhysicalNames
3
2 2 "DIRICHLET_X0"
2 3 "NEUMANN_Z0"
3 400 "VOLUME"
$EndPhysicalNames
$Entities
8 12 6 1
1 0 0 1 0 
2 0 0 0 0 
3 0 1 1 0 
4 0 1 0 0 
5 10 0 1 0 
6 10 0 0 0 
7 10 1 1 0 
8 10 1 0 0 
1 -1e-07 -1e-07 -9.999999994736442e-08 1e-07 1e-07 1.0000001 0 2 2 -1 
2 -1e-07 -9.999999994736442e-08 0.9999999000000001 1e-07 1.0000001 1.0000001 0 2 1 -3 
3 -1e-07 0.9999999000000001 -9.999999994736442e-08 1e-07 1.0000001 1.0000001 0 2 4 -3 
4 -1e-07 -9.999999994736442e-08 -1e-07 1e-07 1.0000001 1e-07 0 2 2 -4 
5 9.999999900000001 -1e-07 -9.999999994736442e-08 10.0000001 1e-07 1.0000001 0 2 6 -5 
6 9.999999900000001 -9.999999994736442e-08 0.9999999000000001 10.0000001 1.0000001 1.0000001 0 2 5 -7 
7 9.999999900000001 0.9999999000000001 -9.999999994736442e-08 10.0000001 1.0000001 1.0000001 0 2 8 -7 
8 9.999999900000001 -9.999999994736442e-08 -1e-07 10.0000001 1.0000001 1e-07 0 2 6 -8 
9 -1.000000002804313e-07 -1e-07 -1e-07 10.0000001 1e-07 1e-07 0 2 2 -6 
10 -1.000000002804313e-07 -1e-07 0.9999999000000001 10.0000001 1e-07 1.0000001 0 2 1 -5 
11 -1.000000002804313e-07 0.9999999000000001 -1e-07 10.0000001 1.0000001 1e-07 0 2 4 -8 
12 -1.000000002804313e-07 0.9999999000000001 0.9999999000000001 10.0000001 1.0000001 1.0000001 0 2 3 -7 
1 -1e-07 -9.999999994736442e-08 -9.999999994736442e-08 1e-07 1.0000001 1.0000001 1 2 4 -1 4 3 -2 
2 9.999999900000001 -9.999999994736442e-08 -9.999999994736442e-08 10.0000001 1.0000001 1.0000001 0 4 -5 8 7 -6 
3 -1.000000002804313e-07 -1e-07 -9.999999994736442e-08 10.0000001 1e-07 1.0000001 0 4 -9 1 10 -5 
4 -1.000000002804313e-07 0.9999999000000001 -9.999999994736442e-08 10.0000001 1.0000001 1.0000001 0 4 -11 3 12 -7 
5 -1.000000002804313e-07 -9.999999994736442e-08 -1e-07 10.0000001 1.0000001 1e-07 1 3 4 -4 9 8 -11 
6 -1.000000002804313e-07 -9.999999994736442e-08 0.9999999000000001 10.0000001 1.0000001 1.0000001 0 4 -2 10 6 -12 
1 -1.000000002804313e-07 -9.999999994736442e-08 -9.999999994736442e-08 10.0000001 1.0000001 1.0000001 1 400 6 -1 2 -3 4 -5 6 
$EndEntities
$Nodes
27 729 1 729
0 1 0 1
1
0 0 1
0 2 0 1
2
0 0 0
0 3 0 1
3
0 1 1
0 4 0 1
4
0 1 0
0 5 0 1
5
10 0 1
0 6 0 1
6
10 0 0
0 7 0 1
7
10 1 1
0 8 0 1
8
10 1 0
1 1 0 3
9
10
11
0 0 0.2499999999999997
0 0 0.4999999999999988
0 0 0.7499999999999989
1 2 0 3
12
13
14
0 0.2499999999999997 1
0 0.4999999999999988 1
0 0.7499999999999989 1
1 3 0 3
15
16
17
0 1 0.2499999999999997
0 1 0.4999999999999988
0 1 0.7499999999999989
1 4 0 3
18
19
20
0 0.2499999999999997 0
0 0.4999999999999988 0
0 0.7499999999999989 0
1 5 0 3
21
22
23
10 0 0.2499999999999997
10 0 0.4999999999999988
10 0 0.7499999999999989
1 6 0 3
24
25
26
10 0.2499999999999997 1
10 0.4999999999999988 1
10 0.7499999999999989 1
1 7 0 3
27
28
29
10 1 0.2499999999999997
10 1 0.4999999999999988
10 1 0.7499999999999989
1 8 0 3
30
31
32
10 0.2499999999999997 0
10 0.4999999999999988 0
10 0.7499999999999989 0
1 9 0 33
33
34
35
36
37
38
39
40
41
42
43
44
45
46
47
48
49
50
51
52
53
54
55
56
57
58
59
60
61
62
63
64
65
0.2941176470588239 0 0
0.5882352941176477 0 0
0.8823529411764718 0 0
1.176470588235296 0 0
1.47058823529412 0 0
1.764705882352943 0 0
2.058823529411767 0 0
2.35294117647059 0 0
2.647058823529415 0 0
2.941176470588239 0 0
3.235294117647064 0 0
3.529411764705888 0 0
3.823529411764713 0 0
4.117647058823538 0 0
4.411764705882362 0 0
4.705882352941187 0 0
5.000000000000011 0 0
5.294117647058833 0 0
5.588235294117657 0 0
5.882352941176478 0 0
6.176470588235301 0 0
6.470588235294124 0 0
6.764705882352946 0 0
7.058823529411768 0 0
7.352941176470591 0 0
7.647058823529414 0 0
7.941176470588236 0 0
8.23529411764706 0 0
8.529411764705882 0 0
8.823529411764703 0 0
9.117647058823527 0 0
9.41176470588235 0 0
9.705882352941172 0 0
1 10 0 33
66
67
68
69
70
71
72
73
74
75
76
77
78
79
80
81
82
83
84
85
86
87
88
89
90
91
92
93
94
95
96
97
98
0.2941176470588239 0 1
0.5882352941176477 0 1
0.8823529411764718 0 1
1.176470588235296 0 1
1.47058823529412 0 1
1.764705882352943 0 1
2.058823529411767 0 1
2.35294117647059 0 1
2.647058823529415 0 1
2.941176470588239 0 1
3.235294117647064 0 1
3.529411764705888 0 1
3.823529411764713 0 1
4.117647058823538 0 1
4.411764705882362 0 1
4.705882352941187 0 1
5.000000000000011 0 1
5.294117647058833 0 1
5.588235294117657 0 1
5.882352941176478 0 1
6.176470588235301 0 1
6.470588235294124 0 1
6.764705882352946 0 1
7.058823529411768 0 1
7.352941176470591 0 1
7.647058823529414 0 1
7.941176470588236 0 1
8.23529411764706 0 1
8.529411764705882 0 1
8.823529411764703 0 1
9.117647058823527 0 1
9.41176470588235 0 1
9.705882352941172 0 1
1 11 0 33
99
100
101
102
103
104
105
106
107
108
109
110
111
112
113
114
115
116
117
118
119
120
121
122
123
124
125
126
127
128
129
130
131
0.2941176470588239 1 0
0.5882352941176477 1 0
0.8823529411764718 1 0
1.176470588235296 1 0
1.47058823529412 1 0
1.764705882352943 1 0
2.058823529411767 1 0
2.35294117647059 1 0
2.647058823529415 1 0
2.941176470588239 1 0
3.235294117647064 1 0
3.529411764705888 1 0
3.823529411764713 1 0
4.117647058823538 1 0
4.411764705882362 1 0
4.705882352941187 1 0
5.000000000000011 1 0
5.294117647058833 1 0
5.588235294117657 1 0
5.882352941176478 1 0
6.176470588235301 1 0
6.470588235294124 1 0
6.764705882352946 1 0
7.058823529411768 1 0
7.352941176470591 1 0
7.647058823529414 1 0
7.941176470588236 1 0
8.23529411764706 1 0
8.529411764705882 1 0
8.823529411764703 1 0
9.117647058823527 1 0
9.41176470588235 1 0
9.705882352941172 1 0
1 12 0 33
132
133
134
135
136
137
138
139
140
141
142
143
144
145
146
147
148
149
150
151
152
153
154
155
156
157
158
159
160
161
162
163
164
0.2941176470588239 1 1
0.5882352941176477 1 1
0.8823529411764718 1 1
1.176470588235296 1 1
1.47058823529412 1 1
1.764705882352943 1 1
2.058823529411767 1 1
2.35294117647059 1 1
2.647058823529415 1 1
2.941176470588239 1 1
3.235294117647064 1 1
3.529411764705888 1 1
3.823529411764713 1 1
4.117647058823538 1 1
4.411764705882362 1 1
4.705882352941187 1 1
5.000000000000011 1 1
5.294117647058833 1 1
5.588235294117657 1 1
5.882352941176478 1 1
6.176470588235301 1 1
6.470588235294124 1 1
6.764705882352946 1 1
7.058823529411768 1 1
7.352941176470591 1 1
7.647058823529414 1 1
7.941176470588236 1 1
8.23529411764706 1 1
8.529411764705882 1 1
8.823529411764703 1 1
9.117647058823527 1 1
9.41176470588235 1 1
9.705882352941172 1 1
2 1 0 15
165
166
167
168
169
170
171
172
173
174
175
176
177
178
179
0 0.7834936490538906 0.6249999999999989
0 0.2046118127312859 0.6359641041884292
0 0.6239406576797799 0.2116930112639576
0 0.3759949993707399 0.2114006558410865
0 0.4999999999999995 0.4330127018922183
0 0.7874036008069083 0.3671197358413988
0 0.5203442540690995 0.7082726776397392
0 0.2365667220822624 0.3989630255083483
0 0.6896861734925073 0.8231510809247649
0 0.3749999999999993 0.8447098097131593
0 0.8169872981077801 0.1830127018922196
0 0.1830127018922192 0.1830127018922192
0 0.1780977805306458 0.8250407933257091
0 0.3832210891220216 0.5884011055039227
0 0.8540734935786142 0.8515195403519169
2 2 0 15
180
181
182
183
184
185
186
187
188
189
190
191
192
193
194
10 0.6249999999999989 0.7834936490538906
10 0.6359641041884292 0.2046118127312859
10 0.2116930112639576 0.6239406576797799
10 0.2114006558410861 0.3759949993707395
10 0.433012701892218 0.4999999999999987
10 0.3671197358413987 0.7874036008069082
10 0.708272677639739 0.520344254069099
10 0.3989630255083481 0.2365667220822622
10 0.8231510809247647 0.6896861734925068
10 0.8447098097131593 0.3749999999999992
10 0.1830127018922196 0.8169872981077801
10 0.1830127018922189 0.1830127018922189
10 0.8250407933257091 0.1780977805306459
10 0.5884011055039224 0.3832210891220214
10 0.8515195403519167 0.8540734935786141
2 3 0 105
195
196
197
198
199
200
201
202
203
204
205
206
207
208
209
210
211
212
213
214
215
216
217
218
219
220
221
222
223
224
225
226
227
228
229
230
231
232
233
234
235
236
237
238
239
240
241
242
243
244
245
246
247
248
249
250
251
252
253
254
255
256
257
258
259
260
261
262
263
264
265
266
267
268
269
270
271
272
273
274
275
276
277
278
279
280
281
282
283
284
285
286
287
288
289
290
291
292
293
294
295
296
297
298
299
8.676496599986272 0 0.7468492190356197
5.735294117647066 0 0.2547133540542449
6.911764705882354 0 0.2547133540542449
6.323529411764711 0 0.7452866459457543
5.148393799157233 0 0.7460573944838345
7.500000000000004 0 0.2547133540542457
9.264705882352935 0 0.2547133540542457
8.088235294117645 0 0.7452866459457543
2.205882352941178 0 0.2547133540542465
4.558823529411773 0 0.7452866459457531
1.323529411764708 0 0.2547133540542467
0.7383138850144869 0 0.7501822410523968
3.382352941176476 0 0.2547133540542473
3.969253259666312 0 0.7460573944838341
2.794117647058828 0 0.7452866459457523
7.205882352941178 0 0.7452866459457547
9.572564134590486 0 0.7423844086216558
4.853894730490468 0 0.2507747825152459
8.382352941176482 0 0.2547133540542449
1.911764705882355 0 0.7452866459457534
0.4274358654095175 0 0.2576155913783398
4.263752328333083 0 0.2507747825152458
9.792370486172365 0 0.3821313107477557
0.2076295138276354 0 0.6178686892522463
5.735294117647066 0 0.745286645945755
6.323529411764711 0 0.2547133540542457
1.323529411764708 0 0.7452866459457532
3.382352941176476 0 0.7452866459457528
2.794117647058828 0 0.2547133540542477
9.265954065475558 0 0.7466738021256107
0.7340459345244443 0 0.2533261978743824
8.970839116889884 0 0.7473583247627
8.823612078499153 0 0.499074100388165
1.029239096031868 0 0.253508018827209
8.088235294117643 0 0.2547133540542457
7.205882352941174 0 0.2547133540542519
6.617647058823537 0 0.7452866459457547
7.500000000000005 0 0.7452866459457543
4.558823529411775 0 0.250258260838415
6.029411764705887 0 0.2547133540542468
6.029411764705887 0 0.7452866459457534
4.854498648036382 0 0.7477569705915965
2.500000000000004 0 0.7452866459457508
2.20588235294118 0 0.7452866459457514
3.676248092297332 0 0.7469864986738692
3.820599881914785 0 0.4972695308415354
2.500000000000004 0 0.2547133540542484
5.44139896652621 0 0.7469864986738703
5.297047176908756 0 0.4972695308415371
1.029411764705884 0 0.7452866459457534
1.617647058823531 0 0.254713354054247
1.911764705882354 0 0.2547133540542469
1.617647058823531 0 0.7452866459457528
3.088235294117653 0 0.2547133540542481
6.911764705882361 0 0.7452866459457539
3.088235294117652 0 0.7452866459457529
6.617647058823532 0 0.2547133540542478
4.263148410787165 0 0.7477569705915965
7.79411764705883 0 0.7452866459457516
7.794117647058828 0 0.2547133540542421
8.382354069688498 0 0.7461724612600921
8.668464483661252 0 0.2500910274232269
5.44166472556323 0 0.2495449218069234
5.001129255177242 0 0.4978572774426406
3.675982333260313 0 0.2495449218069229
4.116517803646304 0 0.4978572774426404
8.978608254028607 0 0.2500829940789813
9.396703509431859 0 0.4979943178375115
0.6037997851293779 0 0.5028216146802622
1.176443232530417 0 0.4999835991977438
8.5294117647059 0 0.5000016993626848
6.470588235294125 0 0.5000000000000009
5.882352941176476 0 0.5000002766203542
7.352941176470591 0 0.5000000000000019
6.176470588235299 0 0.5000000461033924
7.647058823529417 0 0.4999999999999992
4.411157992421882 0 0.4986556562222745
6.76470588235295 0 0.5000000000000016
1.764705882352943 0 0.5000000000000002
2.058823529411766 0 0.4999999999999994
1.470583676009973 0 0.4999972665329572
2.352941176470591 0 0.4999999999999992
3.235294117647064 0 0.5000002766203543
2.94117647058824 0 0.5000000461033924
2.647058823529415 0 0.5000000076838984
7.941176470588235 0 0.4999999999999972
4.706387947491587 0 0.4984315989259876
7.058823529411766 0 0.5000000000000046
8.235294117647031 0 0.4999999999999992
5.147975589199755 0 0.2492410854343912
5.588235294117653 0 0.500001659722125
3.969671469623789 0 0.2492410854343907
3.529411764705888 0 0.5000016597221251
9.117852251723004 0 0.5000613376657781
0.883709585715293 0 0.5004043378080633
0.2165063509461094 0 0.3749999999999993
9.78349364905389 0 0.6249999999999989
9.571665482605569 0 0.2583562632240401
0.4288378119556695 0 0.7424596692937349
9.812388027317111 0 0.8234768817243308
0.1876119726828902 0 0.1765231182756678
9.813983664343823 0 0.1780975147943591
0.1861169945684258 0 0.822065671709196
0.3768418654536619 0 0.4991531129209165
9.623359452370835 0 0.5011732600861923
2 4 0 105
300
301
302
303
304
305
306
307
308
309
310
311
312
313
314
315
316
317
318
319
320
321
322
323
324
325
326
327
328
329
330
331
332
333
334
335
336
337
338
339
340
341
342
343
344
345
346
347
348
349
350
351
352
353
354
355
356
357
358
359
360
361
362
363
364
365
366
367
368
369
370
371
372
373
374
375
376
377
378
379
380
381
382
383
384
385
386
387
388
389
390
391
392
393
394
395
396
397
398
399
400
401
402
403
404
8.676496599986272 1 0.7468492190356197
5.735294117647066 1 0.2547133540542449
6.911764705882354 1 0.2547133540542449
6.323529411764711 1 0.7452866459457543
5.148393799157233 1 0.7460573944838345
7.500000000000004 1 0.2547133540542457
9.264705882352935 1 0.2547133540542457
8.088235294117645 1 0.7452866459457543
2.205882352941178 1 0.2547133540542465
4.558823529411773 1 0.7452866459457531
1.324864387392523 1 0.253942605516166
0.7383484014620186 1 0.2498077264353342
3.382352941176476 1 0.2547133540542473
3.969253259666312 1 0.7460573944838341
2.794117647058828 1 0.7452866459457523
7.205882352941178 1 0.7452866459457547
9.572564134590486 1 0.7423844086216558
4.853894730490468 1 0.2507747825152459
8.382352941176482 1 0.2547133540542449
1.911764705882355 1 0.7452866459457534
1.030365318725752 1 0.7492252174847547
0.4274511890098815 1 0.7423759694309987
4.263752328333083 1 0.2507747825152458
9.792370486172365 1 0.3821313107477557
0.2076296906009966 1 0.3821313107477523
5.735294117647066 1 0.745286645945755
6.323529411764711 1 0.2547133540542457
3.382352941176476 1 0.7452866459457528
2.794117647058828 1 0.2547133540542477
9.265954065475558 1 0.7466738021256107
0.7345183810363646 1 0.7464942085818824
8.970839116889884 1 0.7473583247627
8.823612078499153 1 0.499074100388165
8.088235294117643 1 0.2547133540542457
7.205882352941174 1 0.2547133540542519
6.617647058823537 1 0.7452866459457547
7.500000000000005 1 0.7452866459457543
4.558823529411775 1 0.250258260838415
6.029411764705887 1 0.2547133540542468
6.029411764705887 1 0.7452866459457534
4.854498648036382 1 0.7477569705915965
2.500000000000004 1 0.7452866459457508
2.20588235294118 1 0.7452866459457514
3.676248092297332 1 0.7469864986738692
3.820599881914785 1 0.4972695308415354
2.500000000000004 1 0.2547133540542484
5.44139896652621 1 0.7469864986738703
5.297047176908756 1 0.4972695308415371
1.031478283574161 1 0.2514254248052515
1.6178695547615 1 0.2530135013261303
1.473517765144047 1 0.5027304691584649
1.911774358802056 1 0.2538215846236612
3.088235294117653 1 0.2547133540542481
6.911764705882361 1 0.7452866459457539
3.088235294117652 1 0.7452866459457529
6.617647058823532 1 0.2547133540542478
4.263148410787165 1 0.7477569705915965
7.79411764705883 1 0.7452866459457516
7.794117647058828 1 0.2547133540542421
8.382354069688498 1 0.7461724612600921
8.668464483661252 1 0.2500910274232269
5.44166472556323 1 0.2495449218069234
5.001129255177242 1 0.4978572774426406
1.618135313798519 1 0.7504550781930774
1.17768468462961 1 0.5020064551235013
3.675982333260313 1 0.2495449218069229
4.116517803646304 1 0.4978572774426404
8.978608254028607 1 0.2500829940789813
0.6039212084792918 1 0.4971351515009955
9.396703509431859 1 0.4979943178375115
0.884995635325087 1 0.4995350218966333
8.5294117647059 1 0.5000016993626848
6.470588235294125 1 0.5000000000000009
5.882352941176476 1 0.5000002766203542
7.352941176470591 1 0.5000000000000019
6.176470588235299 1 0.5000000461033924
7.647058823529417 1 0.4999999999999992
4.411157992421882 1 0.4986556562222745
6.76470588235295 1 0.5000000000000016
2.058823529411765 1 0.5000000000000002
2.35294117647059 1 0.4999999999999991
3.235294117647064 1 0.5000002766203543
2.94117647058824 1 0.5000000461033924
2.647058823529415 1 0.5000000076838984
7.941176470588235 1 0.4999999999999972
4.706387947491587 1 0.4984315989259876
7.058823529411766 1 0.5000000000000046
8.235294117647031 1 0.4999999999999992
5.147975589199755 1 0.2492410854343912
5.588235294117653 1 0.500001659722125
3.969671469623789 1 0.2492410854343907
1.32446031763789 1 0.7507362033266329
1.764705882352943 1 0.4999983402778754
3.529411764705888 1 0.5000016597221251
9.117852251723004 1 0.5000613376657781
0.2165063509461091 1 0.6249999999999989
9.78349364905389 1 0.6249999999999989
9.571665482605569 1 0.2583562632240401
0.4288602658429516 1 0.2575327212304055
0.1876150374029629 1 0.8234751938861993
9.812388027317111 1 0.8234768817243308
9.813983664343823 1 0.1780975147943591
0.1861215207005544 1 0.1779328063956315
0.3768737409758461 1 0.5008350305820302
9.623359452370835 1 0.5011732600861923
2 5 0 105
405
406
407
408
409
410
411
412
413
414
415
416
417
418
419
420
421
422
423
424
425
426
427
428
429
430
431
432
433
434
435
436
437
438
439
440
441
442
443
444
445
446
447
448
449
450
451
452
453
454
455
456
457
458
459
460
461
462
463
464
465
466
467
468
469
470
471
472
473
474
475
476
477
478
479
480
481
482
483
484
485
486
487
488
489
490
491
492
493
494
495
496
497
498
499
500
501
502
503
504
505
506
507
508
509
8.676470588235285 0.7468605366872333 0
5.735294117647066 0.2547133540542449 0
6.911764705882354 0.2547133540542449 0
8.088235294117645 0.7452866459457543 0
5.147058823529421 0.2547133540542457 0
7.501334975627817 0.2539426055161683 0
9.260314070391443 0.2474375044668727 0
6.323529411764711 0.7452866459457543 0
2.206835906961046 0.250774782515245 0
4.558823529411773 0.2547133540542469 0
1.323529411764708 0.2531419594158103 0
0.7383484014620185 0.2498077264353342 0
3.382352941176476 0.7452866459457528 0
3.970588235294127 0.7452866459457526 0
2.794117647058826 0.7468580405841889 0
9.572548810990115 0.7423759694309989 0
7.206835906961045 0.749225217484756 0
5.441176470588243 0.7452866459457547 0
4.8529411764706 0.7452866459457539 0
8.382352941176482 0.2547133540542449 0
1.910811151862486 0.7492252174847549 0
1.029411764705884 0.7452866459457531 0
0.4274511890098816 0.7423759694309986 0
3.676470588235301 0.2547133540542475 0
3.088235294117652 0.2547133540542475 0
9.792370309398999 0.382131310747754 0
0.2076296906009967 0.3821313107477523 0
6.323529411764711 0.2547133540542457 0
9.265386317766797 0.7466129150547098 0
0.7341270018665877 0.7466423210905007 0
8.969366703846099 0.7465432625693034 0
8.820654354579794 0.4973316659350749 0
8.088235294117657 0.2547133540542486 0
7.794340142996799 0.2530135013261321 0
7.649988353379346 0.5027304691584652 0
7.207439824506961 0.2522430294084043 0
6.617647058823533 0.7452866459457517 0
6.911845790407853 0.7472247401426948 0
4.558823529411772 0.7452866459457531 0
5.441176470588243 0.2547133540542453 0
5.735294117647064 0.7452866459457508 0
6.029411764705888 0.7452866459457521 0
2.501334975627818 0.7463192935902396 0
2.649951270723014 0.4972917710109889 0
3.676470588235302 0.7452866459457514 0
4.852941176470596 0.2547133540542497 0
6.029411764705887 0.2547133540542467 0
3.382352941176476 0.2547133540542472 0
3.970588235294127 0.2547133540542475 0
2.207280898836985 0.7484570490324975 0
1.02967148271736 0.2525592640715545 0
1.616312083195716 0.25368070640976 0
1.46769578810052 0.5027082289890106 0
1.910366159986548 0.2515429509675025 0
3.088235294117652 0.7461728422605494 0
6.617647058823533 0.2547133540542464 0
4.26470588235295 0.2547133540542438 0
4.26470588235295 0.7452866459457548 0
5.147058823529422 0.7452866459457537 0
8.382352941176464 0.7461729534013852 0
9.116343140497214 0.4972032415760684 0
8.675988821241596 0.2495568077984716 0
7.354070431647823 0.5021427225573607 0
7.794605902033816 0.7504550781930776 0
1.323047337232441 0.7504513714981683 0
1.763609295230095 0.5019786862712331 0
2.354037763593438 0.4980213137287667 0
2.794599721591093 0.2495486285018315 0
0.6038559786176623 0.4971598369190985 0
9.395622666909091 0.496293772514403 0
0.8831237819088915 0.4996292401924594 0
8.969079476216379 0.2485882032960813 0
8.529411764705902 0.5000017253710595 0
7.05944375695983 0.5009248439412429 0
5.294117647058831 0.4999999999999989 0
6.764705882352946 0.4999999999999968 0
5.588235294117654 0.4999999999999974 0
6.176470588235297 0.4999999999999991 0
6.470588235294121 0.499999999999999 0
5.882352941176476 0.4999999999999979 0
4.411764705882362 0.5 0
2.058823529411766 0.5 0
4.11764705882354 0.4999999999999996 0
5.000000000000012 0.4999999999999987 0
4.705882352941186 0.5000000000000026 0
3.529411764705888 0.4999999999999999 0
3.235294117647067 0.5 0
3.823529411764714 0.4999999999999997 0
8.235294117647063 0.4999999999999887 0
7.500916765670338 0.7507589145656098 0
7.941176470588258 0.4999983402778798 0
1.176470588235296 0.4999983402778755 0
1.616742948345434 0.7507272507071945 0
2.500904110478099 0.2492727492928053 0
2.941176470588238 0.5000016597221233 0
0.2165063509461092 0.6249999999999989 0
9.783493649053892 0.6249999999999989 0
9.570883498048737 0.2570739210939696 0
0.4288509472912901 0.257536247718706 0
9.812384962597035 0.8234751938861994 0
0.187615037402963 0.8234751938861993 0
9.813827232077783 0.1778410463683446 0
0.1861196569902221 0.1779335116932916 0
9.622983786880166 0.500574994757425 0
0.376858831293188 0.5008406729633109 0
2 6 0 105
510
511
512
513
514
515
516
517
518
519
520
521
522
523
524
525
526
527
528
529
530
531
532
533
534
535
536
537
538
539
540
541
542
543
544
545
546
547
548
549
550
551
552
553
554
555
556
557
558
559
560
561
562
563
564
565
566
567
568
569
570
571
572
573
574
575
576
577
578
579
580
581
582
583
584
585
586
587
588
589
590
591
592
593
594
595
596
597
598
599
600
601
602
603
604
605
606
607
608
609
610
611
612
613
614
8.676470588235285 0.7468605366872333 1
5.735294117647066 0.745286645945755 1
6.911764705882354 0.2547133540542449 1
6.322194436136899 0.253942605516164 1
8.088235294117645 0.7452866459457543 1
5.147058823529421 0.2547133540542457 1
7.501334975627817 0.2539426055161683 1
9.260314070391443 0.2474375044668727 1
2.206835906961046 0.250774782515245 1
1.323529411764708 0.2531419594158104 1
4.558823529411773 0.7452866459457531 1
0.7383484014620186 0.2498077264353343 1
3.382352941176476 0.7452866459457528 1
3.970588235294127 0.7452866459457526 1
2.794117647058826 0.7468580405841889 1
9.572548810990115 0.7423759694309989 1
7.206835906961045 0.7492252174847565 1
6.616693504803667 0.7492252174847545 1
8.382352941176482 0.2547133540542449 1
1.910811151862486 0.7492252174847549 1
1.029411764705884 0.7452866459457531 1
0.4274511890098816 0.7423759694309984 1
4.26470588235295 0.2547133540542473 1
3.676470588235301 0.2547133540542475 1
3.088235294117652 0.2547133540542475 1
9.792370309398999 0.382131310747754 1
0.2076296906009966 0.3821313107477523 1
5.735294117647066 0.2547133540542449 1
5.147058823529422 0.7452866459457543 1
9.265386317766797 0.7466129150547098 1
0.7341270018665877 0.7466423210905007 1
8.969366703846099 0.7465432625693034 1
8.820654354579794 0.4973316659350749 1
8.088235294117657 0.2547133540542486 1
7.794340142996799 0.2530135013261321 1
7.649988353379346 0.5027304691584652 1
7.20743982450696 0.2522430294084042 1
6.02918926876792 0.2530135013261294 1
6.173541058385373 0.5027304691584611 1
2.501334975627818 0.7463192935902396 1
2.649951270723014 0.4972917710109889 1
3.676470588235302 0.7452866459457514 1
4.558823529411772 0.2547133540542445 1
4.852941176470595 0.2547133540542493 1
3.382352941176476 0.2547133540542472 1
3.970588235294125 0.2547133540542489 1
2.207280898836985 0.7484570490324975 1
4.852941176470599 0.7452866459457551 1
1.616312083195716 0.25368070640976 1
1.46769578810052 0.5027082289890106 1
1.910366159986548 0.2515429509675025 1
1.02967148271736 0.2525592640715545 1
5.441176470588243 0.7452866459457563 1
6.911764705882355 0.7497417391615857 1
5.44117647058824 0.2547133540542474 1
3.088235294117652 0.7461728422605494 1
6.616089587257752 0.2522430294084012 1
4.26470588235295 0.7452866459457551 1
8.382352941176464 0.7461729534013852 1
9.116343140497214 0.4972032415760684 1
8.675988821241596 0.2495568077984716 1
6.028923509730899 0.7504550781930759 1
7.354070431647822 0.5021427225573607 1
6.46945898011689 0.5021427225573575 1
7.794605902033816 0.7504550781930776 1
1.323047337232441 0.7504513714981683 1
1.763609295230095 0.5019786862712331 1
2.354037763593438 0.4980213137287667 1
2.794599721591093 0.2495486285018315 1
0.6038559786176624 0.4971598369190985 1
9.395622666909091 0.496293772514403 1
0.8831237819088917 0.4996292401924594 1
8.969079476216379 0.2485882032960813 1
8.529411764705902 0.5000017253710595 1
7.059430242872247 0.5013443437777252 1
5.588235294117654 0.499999723379647 1
6.764200287802543 0.5015684010740113 1
5.00000000000001 0.5000000000000018 1
5.294117647058831 0.4999999538966087 1
2.058823529411766 0.5 1
4.411764705882363 0.4999999999999993 1
4.705882352941186 0.5000000000000023 1
4.117647058823539 0.5000000000000008 1
3.529411764705889 0.5 1
3.235294117647067 0.5 1
3.823529411764714 0.5000000000000006 1
8.235294117647063 0.4999999999999887 1
6.322612646094375 0.7507589145656081 1
7.500916765670338 0.7507589145656099 1
5.882352941176472 0.4999983402778752 1
7.941176470588258 0.4999983402778798 1
1.176470588235296 0.4999983402778755 1
1.616742948345434 0.7507272507071945 1
2.500904110478099 0.2492727492928053 1
2.941176470588238 0.5000016597221233 1
0.2165063509461092 0.6249999999999989 1
9.783493649053892 0.6249999999999989 1
9.570883498048737 0.2570739210939696 1
0.4288509472912902 0.257536247718706 1
9.812384962597035 0.8234751938861994 1
0.187615037402963 0.8234751938861993 1
9.813827232077783 0.1778410463683446 1
0.1861196569902221 0.1779335116932916 1
9.622983786880166 0.500574994757425 1
0.376858831293188 0.5008406729633108 1
3 1 0 115
615
616
617
618
619
620
621
622
623
624
625
626
627
628
629
630
631
632
633
634
635
636
637
638
639
640
641
642
643
644
645
646
647
648
649
650
651
652
653
654
655
656
657
658
659
660
661
662
663
664
665
666
667
668
669
670
671
672
673
674
675
676
677
678
679
680
681
682
683
684
685
686
687
688
689
690
691
692
693
694
695
696
697
698
699
700
701
702
703
704
705
706
707
708
709
710
711
712
713
714
715
716
717
718
719
720
721
722
723
724
725
726
727
728
729
9.509704722477187 0.4771123218198834 0.5228813933055572
1.030076130336869 0.5001719287863772 0.5
6.323529411764709 0.5 0.5000000000000011
5.735294117647065 0.5 0.5000000000000766
3.08823529412233 0.5 0.4999999999972469
8.08823529412232 0.5 0.4999999999972521
7.205882352941179 0.5 0.5001811798485505
2.205882352941178 0.5000000000000002 0.4999999999999998
5.147058823529422 0.5003262673984431 0.5000000000000002
4.558823529411774 0.5 0.4998198638330189
8.970729258888925 0.5 0.50043390117908
3.675018625101739 0.4999999999972452 0.4999999999999997
1.617644780167138 0.4995768353968038 0.4998925736960018
0.4673481355174106 0.4688319526180167 0.5311645846547901
8.529509561662973 0.4447227817540092 0.4447227788785886
6.764717267039106 0.5553532764879886 0.4446467235120112
7.647047373480943 0.4446467811884531 0.4443283959813952
2.647058823531581 0.5553633226530581 0.4443211043369177
4.116932247130896 0.5549515826536724 0.5547128616205245
9.688318299861308 0.6891621242458017 0.3144158160992023
9.694044179050191 0.301998480960638 0.3019985264461974
1.324040985229207 0.6508929860093338 0.6507806864552055
5.441092428594728 0.3486418140057537 0.3506413716568209
6.029411764705906 0.6493920707735996 0.6513907887401594
5.441259863277814 0.6505138077853151 0.6498713487308327
1.32368111141661 0.3499776099068594 0.3493850521197081
6.029411764705868 0.34995011678757 0.34995011678757
0.3050218801323831 0.3047653618333975 0.3011615947299088
4.853070812600004 0.3489505770677153 0.350462879186524
3.381626959610623 0.3496636176370996 0.6503363823629005
3.381626959613445 0.6503363823628975 0.3496636176371025
1.911683244164515 0.6497436989028686 0.3490789578817546
4.852811794600226 0.6506980717978721 0.6497540215069988
1.911843524799592 0.3503185588409103 0.6508954370352122
0.31473839258427 0.6791495581294534 0.3173002736870466
0.7305073014300562 0.6491097939186703 0.3523982748349904
7.820228032773519 0.6597820522602199 0.6615198948544029
2.820224400086838 0.340219162071439 0.6615180143140614
8.356018590498415 0.6605436629409587 0.6605437118809605
3.942694290270249 0.3382590006241181 0.3400524653718495
6.938024694214051 0.3395479711389016 0.6604520288610995
2.470275419990117 0.3388656531788607 0.663097033478725
7.47031110510277 0.6611559270957893 0.66313068317326
8.705886491664119 0.6618757385970708 0.6618825589795145
4.293056988406258 0.3377536253750859 0.3391983685914657
6.58818324035974 0.3385363784024976 0.6621131561884201
9.684382315446909 0.6951087508188234 0.6951087508188238
9.254163682959938 0.6540066567722029 0.3454855327627948
0.313222643951052 0.6994242516513416 0.6994242516513416
0.2792708517539927 0.2713528634218138 0.7286471034370531
9.699018644209314 0.2970348820980139 0.7066202505815401
0.7529993492204811 0.3096847209208002 0.4171939804784348
0.7530455016579027 0.5803956024705939 0.6902617572230427
8.742874218266898 0.3239259176755253 0.6772380381530977
7.860951385099028 0.6759869019890501 0.322682132581327
2.860953713167997 0.3240123459939618 0.3226808739817378
7.43302392213526 0.675847698371091 0.3223589797357725
2.433107413087151 0.324137668852894 0.3223576391169772
2.433663788442503 0.6760199153791689 0.6766539991827989
7.860477675290102 0.3238967728047722 0.6765127317876963
2.860479345839321 0.6760965818480307 0.6765282809896774
7.433720547013205 0.3239356805171605 0.6766258234857788
8.315766566689222 0.6762477556078306 0.3235104727979184
8.315766548934132 0.3235103584049316 0.6762477099319191
6.978124663075734 0.6758685853682207 0.6771217111012692
3.902521858357173 0.6773438317437448 0.3239592981291948
3.902856644525643 0.323758335358225 0.6763834903815552
6.551068193348646 0.3236756365404764 0.3236756365404755
6.551175432783431 0.6760007327341884 0.6768554741196078
1.254201477231362 0.3225709905516169 0.6778524884886726
6.978427044484176 0.3236855791759497 0.3236855791759497
1.253219445727553 0.67799993532753 0.3212905940787404
4.33126573176952 0.6772678038745426 0.3240863047387028
4.330914454444914 0.3231291653727445 0.6757751003081538
5.512604666459749 0.6791002137788135 0.3221848472773045
3.311964766608215 0.3221723424252598 0.3221723424252598
3.311964766604877 0.6778276575747434 0.6778276575747435
5.36929105490927 0.3213132810698865 0.6781702493274924
5.958903830513442 0.6778749191451972 0.3221250808548028
5.957844012819437 0.3218355883008768 0.6785556117646132
4.922866405858393 0.6767436295233903 0.3217976429950942
4.923601382695287 0.3231114204588268 0.6783328303916285
1.981993883690869 0.3217970502678409 0.323127999151734
1.982016217893906 0.6782652343742506 0.6767718183140535
9.236950625785393 0.3067605705931634 0.4047241681149156
9.237098409719737 0.5942795803684051 0.6943329411239001
8.742977011749755 0.6783802672284737 0.3247302419192225
7.384073111791388 0.3044999004127252 0.3037370013274858
2.38414824695357 0.6955011602259257 0.303684220561715
7.90992780808178 0.3043247190477749 0.3040890257688778
2.909945151545918 0.6956573328039163 0.3040316435458729
8.26677718132431 0.30433965169867 0.3043396516986699
7.027559006447818 0.695584173578758 0.3040671193831312
3.854255937208538 0.6953057580422236 0.6957609395567058
6.501109576424431 0.7253480541447259 0.2828285489889478
4.379692833352745 0.6961910614350485 0.6949833569029599
8.822666344426281 0.2890736860176547 0.2935160326415968
9.11258457203726 0.2922585977952452 0.7094029279082741
0.8974032919156298 0.2922329624729383 0.708228180876557
0.5874451213424329 0.2681345495491886 0.7318870336370222
1.683112112334887 0.7080310530710063 0.7084439025174336
1.552072167433426 0.7079993953885033 0.2916870064807887
6.256637124438444 0.2918383944815846 0.7079280198226965
3.610473001291833 0.2913297302226314 0.2920129785547547
1.683617687530981 0.2919326963498184 0.2914304537067335
1.552383471763799 0.2917656588366553 0.7080480962666607
4.627114719304737 0.2899931849414666 0.7100068150585339
4.626967575844761 0.7109409652379292 0.2897101107199608
5.217620874122351 0.7121366142927769 0.288393435171944
5.663575406225818 0.2875648270077514 0.7124351729922486
5.157866860431257 0.2914507459970874 0.2922793474739264
1.040599726497727 0.2919316944840952 0.2918051264697126
5.724038606357213 0.2919152715491822 0.2919152715491823
5.724137521602912 0.7080847284508605 0.7080847284508606
5.158503553196191 0.7082140707975444 0.7081570370260164
$EndNodes
$Elements
3 2653 1 2653
2 1 2 44
1 11 1 177 
2 1 12 177 
3 2 9 176 
4 18 2 176 
5 14 3 179 
6 3 17 179 
7 15 4 175 
8 4 20 175 
9 9 10 172 
10 9 172 176 
11 10 11 166 
12 10 166 172 
13 166 11 177 
14 12 13 174 
15 12 174 177 
16 13 14 173 
17 171 13 173 
18 13 171 174 
19 173 14 179 
20 16 15 170 
21 170 15 175 
22 17 16 165 
23 165 16 170 
24 17 165 179 
25 19 18 168 
26 168 18 176 
27 20 19 167 
28 167 19 168 
29 20 167 175 
30 169 165 170 
31 165 169 171 
32 165 171 173 
33 165 173 179 
34 172 166 178 
35 174 166 177 
36 166 174 178 
37 167 168 169 
38 167 169 170 
39 167 170 175 
40 169 168 172 
41 172 168 176 
42 171 169 178 
43 169 172 178 
44 174 171 178 
2 5 2 284
45 2 18 507 
46 33 2 507 
47 20 4 505 
48 4 99 505 
49 30 6 506 
50 6 65 506 
51 8 32 504 
52 131 8 504 
53 18 19 431 
54 18 431 507 
55 19 20 500 
56 431 19 500 
57 500 20 505 
58 31 30 430 
59 430 30 506 
60 32 31 501 
61 31 430 501 
62 32 501 504 
63 34 33 503 
64 503 33 507 
65 35 34 416 
66 416 34 503 
67 36 35 455 
68 35 416 455 
69 37 36 415 
70 415 36 455 
71 38 37 456 
72 37 415 456 
73 39 38 458 
74 38 456 458 
75 40 39 413 
76 413 39 458 
77 41 40 498 
78 40 413 498 
79 42 41 472 
80 472 41 498 
81 43 42 429 
82 429 42 472 
83 44 43 452 
84 43 429 452 
85 45 44 428 
86 428 44 452 
87 46 45 453 
88 45 428 453 
89 47 46 461 
90 46 453 461 
91 48 47 414 
92 414 47 461 
93 49 48 450 
94 48 414 450 
95 50 49 409 
96 409 49 450 
97 51 50 444 
98 50 409 444 
99 52 51 406 
100 406 51 444 
101 53 52 451 
102 52 406 451 
103 54 53 432 
104 432 53 451 
105 55 54 460 
106 54 432 460 
107 56 55 407 
108 407 55 460 
109 57 56 440 
110 56 407 440 
111 58 57 410 
112 410 57 440 
113 59 58 438 
114 58 410 438 
115 60 59 437 
116 437 59 438 
117 61 60 424 
118 424 60 437 
119 62 61 466 
120 61 424 466 
121 63 62 476 
122 62 466 476 
123 64 63 411 
124 411 63 476 
125 65 64 502 
126 64 411 502 
127 65 502 506 
128 99 100 427 
129 99 427 505 
130 100 101 434 
131 427 100 434 
132 101 102 426 
133 101 426 434 
134 102 103 469 
135 426 102 469 
136 103 104 497 
137 469 103 497 
138 104 105 425 
139 104 425 497 
140 105 106 454 
141 425 105 454 
142 106 107 447 
143 106 447 454 
144 107 108 419 
145 107 419 447 
146 108 109 459 
147 419 108 459 
148 109 110 417 
149 109 417 459 
150 110 111 449 
151 417 110 449 
152 111 112 418 
153 111 418 449 
154 112 113 462 
155 418 112 462 
156 113 114 443 
157 113 443 462 
158 114 115 423 
159 114 423 443 
160 115 116 463 
161 423 115 463 
162 116 117 422 
163 116 422 463 
164 117 118 445 
165 422 117 445 
166 118 119 446 
167 445 118 446 
168 119 120 412 
169 119 412 446 
170 120 121 441 
171 412 120 441 
172 121 122 442 
173 441 121 442 
174 122 123 421 
175 122 421 442 
176 123 124 494 
177 421 123 494 
178 124 125 468 
179 124 468 494 
180 125 126 408 
181 125 408 468 
182 126 127 464 
183 408 126 464 
184 127 128 405 
185 127 405 464 
186 128 129 435 
187 405 128 435 
188 129 130 433 
189 129 433 435 
190 130 131 420 
191 130 420 433 
192 420 131 504 
193 405 435 436 
194 405 436 477 
195 464 405 477 
196 406 444 481 
197 451 406 484 
198 406 481 484 
199 440 407 478 
200 407 460 480 
201 478 407 480 
202 408 464 493 
203 468 408 495 
204 408 493 495 
205 444 409 479 
206 409 450 488 
207 479 409 488 
208 438 410 439 
209 439 410 467 
210 410 440 467 
211 411 465 474 
212 465 411 476 
213 411 474 502 
214 412 441 483 
215 446 412 482 
216 482 412 483 
217 413 458 486 
218 471 413 486 
219 413 471 498 
220 450 414 489 
221 414 461 485 
222 414 485 489 
223 415 455 496 
224 456 415 457 
225 457 415 496 
226 455 416 475 
227 416 473 475 
228 473 416 503 
229 417 449 490 
230 459 417 491 
231 417 490 491 
232 449 418 492 
233 418 462 487 
234 418 487 492 
235 447 419 448 
236 448 419 499 
237 419 459 499 
238 433 420 474 
239 474 420 508 
240 501 420 504 
241 420 501 508 
242 442 421 478 
243 421 467 478 
244 467 421 494 
245 422 445 481 
246 463 422 479 
247 479 422 481 
248 443 423 489 
249 423 463 488 
250 423 488 489 
251 424 437 493 
252 466 424 477 
253 477 424 493 
254 425 454 486 
255 470 425 486 
256 425 470 497 
257 434 426 475 
258 426 469 496 
259 475 426 496 
260 427 434 473 
261 427 473 509 
262 427 500 505 
263 500 427 509 
264 428 452 490 
265 453 428 492 
266 428 490 492 
267 452 429 491 
268 429 472 499 
269 491 429 499 
270 501 430 508 
271 502 430 506 
272 430 502 508 
273 431 500 509 
274 431 503 507 
275 503 431 509 
276 432 451 482 
277 460 432 483 
278 432 482 483 
279 435 433 465 
280 465 433 474 
281 473 434 475 
282 436 435 465 
283 436 465 476 
284 466 436 476 
285 436 466 477 
286 437 438 495 
287 493 437 495 
288 438 439 495 
289 439 467 494 
290 468 439 494 
291 439 468 495 
292 467 440 478 
293 441 442 480 
294 441 480 483 
295 442 478 480 
296 462 443 485 
297 485 443 489 
298 444 479 481 
299 445 446 484 
300 481 445 484 
301 446 482 484 
302 447 448 471 
303 454 447 471 
304 471 448 498 
305 448 472 498 
306 472 448 499 
307 490 449 492 
308 488 450 489 
309 482 451 484 
310 490 452 491 
311 461 453 487 
312 487 453 492 
313 454 471 486 
314 455 475 496 
315 456 457 470 
316 458 456 470 
317 469 457 496 
318 457 469 497 
319 470 457 497 
320 458 470 486 
321 459 491 499 
322 480 460 483 
323 485 461 487 
324 462 485 487 
325 463 479 488 
326 464 477 493 
327 473 503 509 
328 502 474 508 
3 1 4 2325
329 530 616 320 636 
330 224 517 665 712 
331 224 665 615 712 
332 615 665 517 712 
333 320 616 530 667 
334 250 534 644 652 
335 414 233 643 659 
336 517 615 580 665 
337 238 648 518 656 
338 250 644 619 652 
339 619 644 534 652 
340 262 615 224 665 
341 414 643 624 659 
342 624 643 233 659 
343 238 622 648 656 
344 211 262 224 665 
345 518 648 622 656 
346 517 580 607 665 
347 375 617 693 709 
348 482 693 617 709 
349 393 691 626 708 
350 626 691 593 708 
351 517 580 615 712 
352 375 693 326 709 
353 482 412 693 709 
354 224 517 607 665 
355 343 691 393 708 
356 551 593 691 708 
357 370 616 320 667 
358 404 369 634 661 
359 224 615 262 712 
360 211 224 607 665 
361 348 370 616 686 
362 508 634 474 635 
363 370 364 320 616 
364 581 530 601 616 
365 368 403 649 663 
366 365 626 393 645 
367 331 332 394 625 
368 594 534 604 619 
369 238 276 274 622 
370 250 277 278 619 
371 600 514 596 620 
372 307 384 387 620 
373 331 658 625 700 
374 271 281 233 624 
375 393 626 365 680 
376 548 597 617 638 
377 489 485 414 624 
378 473 509 642 649 
379 518 589 577 622 
380 239 626 287 644 
381 541 658 331 700 
382 601 616 530 636 
383 626 645 365 680 
384 320 616 364 636 
385 594 534 619 644 
386 250 277 619 644 
387 281 233 624 643 
388 548 617 597 683 
389 238 622 274 648 
390 375 617 303 638 
391 518 589 622 648 
392 617 638 597 683 
393 426 616 475 686 
394 269 617 220 641 
395 432 617 482 641 
396 593 626 533 644 
397 490 626 449 645 
398 332 625 331 658 
399 489 624 414 643 
400 238 276 622 656 
401 287 626 239 681 
402 233 271 624 659 
403 514 620 600 651 
404 604 619 534 652 
405 596 620 514 653 
406 307 620 387 653 
407 250 619 278 652 
408 307 384 620 651 
409 577 518 622 656 
410 220 617 269 682 
411 482 617 432 682 
412 533 626 593 681 
413 490 449 626 680 
414 375 303 617 683 
415 331 625 394 700 
416 348 616 370 650 
417 414 624 485 659 
418 626 644 239 681 
419 307 514 651 653 
420 412 326 693 709 
421 533 644 626 681 
422 449 645 626 680 
423 343 551 691 708 
424 617 641 432 682 
425 220 641 617 682 
426 303 638 617 683 
427 530 616 581 667 
428 615 699 262 712 
429 616 650 348 686 
430 435 465 625 701 
431 475 616 426 650 
432 307 651 620 653 
433 620 651 514 653 
434 410 702 200 704 
435 410 200 254 704 
436 621 655 282 676 
437 442 302 355 709 
438 442 707 302 709 
439 355 441 442 709 
440 621 657 374 679 
441 328 447 419 705 
442 254 438 410 704 
443 584 655 621 676 
444 435 625 465 662 
445 426 650 616 686 
446 580 700 615 712 
447 523 708 356 710 
448 210 282 655 676 
449 569 542 541 700 
450 394 662 625 701 
451 356 523 313 708 
452 567 523 356 710 
453 572 657 621 679 
454 315 374 657 679 
455 584 546 655 676 
456 435 625 662 701 
457 256 629 466 706 
458 368 663 628 667 
459 628 642 473 666 
460 268 621 282 676 
461 374 386 621 679 
462 620 669 384 677 
463 387 620 384 677 
464 220 432 641 682 
465 600 620 596 674 
466 596 674 620 678 
467 572 526 657 679 
468 280 620 674 678 
469 303 597 638 683 
470 280 283 620 678 
471 533 239 644 681 
472 449 365 645 680 
473 495 620 493 669 
474 493 669 620 677 
475 375 617 372 683 
476 482 483 617 682 
477 475 686 616 726 
478 269 682 617 717 
479 266 682 269 717 
480 490 680 626 718 
481 595 593 626 681 
482 626 681 287 718 
483 490 492 680 718 
484 577 673 622 698 
485 584 621 572 676 
486 572 621 584 679 
487 491 619 499 690 
488 278 619 277 690 
489 381 382 619 691 
490 594 619 604 691 
491 619 670 499 690 
492 278 670 619 690 
493 485 624 489 722 
494 619 675 604 691 
495 382 675 619 691 
496 368 649 628 663 
497 577 622 589 698 
498 274 622 276 697 
499 379 622 380 698 
500 622 672 276 697 
501 471 672 622 697 
502 622 673 380 698 
503 240 287 681 718 
504 271 281 624 721 
505 394 367 662 701 
506 473 642 628 649 
507 364 616 370 686 
508 344 626 393 680 
509 471 622 486 697 
510 436 625 465 701 
511 394 625 332 701 
512 200 702 631 704 
513 426 348 650 686 
514 632 703 345 705 
515 424 256 466 706 
516 631 702 410 704 
517 447 703 632 705 
518 302 707 630 709 
519 291 182 217 665 
520 633 708 523 710 
521 356 708 633 710 
522 615 634 369 661 
523 475 496 686 726 
524 368 628 650 667 
525 484 693 689 727 
526 481 484 689 727 
527 615 661 369 700 
528 587 588 692 729 
529 689 693 373 728 
530 587 692 696 729 
531 373 389 689 728 
532 424 213 256 706 
533 466 629 256 711 
534 473 650 628 666 
535 258 696 692 725 
536 581 616 601 713 
537 482 641 617 693 
538 617 638 375 693 
539 321 663 368 667 
540 379 380 622 703 
541 280 704 620 706 
542 268 282 621 702 
543 495 493 620 704 
544 280 620 283 706 
545 381 619 382 705 
546 499 619 491 705 
547 620 704 493 706 
548 374 621 386 707 
549 593 626 644 691 
550 393 645 626 691 
551 375 372 617 709 
552 482 617 483 709 
553 595 626 593 708 
554 374 315 386 679 
555 268 282 210 676 
556 467 621 478 702 
557 478 621 467 707 
558 622 646 379 703 
559 471 486 622 703 
560 375 372 303 683 
561 473 642 503 666 
562 384 669 333 677 
563 381 645 619 705 
564 387 384 333 677 
565 491 619 645 705 
566 596 543 674 678 
567 600 596 543 674 
568 280 674 202 678 
569 591 647 624 710 
570 243 258 692 725 
571 280 202 283 678 
572 266 220 269 682 
573 482 432 483 682 
574 486 646 622 703 
575 474 635 615 699 
576 493 408 669 677 
577 385 624 647 710 
578 344 393 626 708 
579 495 493 408 669 
580 531 663 321 667 
581 465 625 436 711 
582 490 492 449 680 
583 573 548 597 683 
584 595 533 593 681 
585 628 649 368 650 
586 369 661 316 700 
587 240 287 239 681 
588 473 649 628 650 
589 572 584 526 679 
590 344 393 365 680 
591 474 634 615 635 
592 546 584 572 676 
593 278 248 670 690 
594 354 675 382 691 
595 604 675 565 691 
596 499 670 429 690 
597 503 642 215 666 
598 276 672 203 697 
599 380 673 342 698 
600 689 693 618 727 
601 577 556 673 698 
602 435 436 465 701 
603 491 499 429 690 
604 278 277 248 690 
605 381 354 382 691 
606 594 604 565 691 
607 484 445 689 693 
608 577 589 556 698 
609 481 484 445 689 
610 426 475 496 686 
611 525 316 661 700 
612 618 693 689 728 
613 274 276 203 697 
614 379 380 342 698 
615 623 696 692 729 
616 692 696 623 725 
617 471 413 672 697 
618 587 588 515 692 
619 587 692 515 696 
620 301 373 689 693 
621 217 182 183 635 
622 282 685 621 702 
623 374 671 621 707 
624 301 373 389 689 
625 591 710 624 721 
626 621 671 467 707 
627 621 685 478 702 
628 258 199 692 696 
629 471 486 413 697 
630 624 710 385 722 
631 171 178 663 664 
632 348 364 370 686 
633 651 376 669 671 
634 279 652 670 672 
635 654 487 680 687 
636 654 659 487 687 
637 651 657 376 671 
638 279 656 652 672 
639 369 662 615 700 
640 614 536 605 663 
641 403 395 324 663 
642 653 668 583 678 
643 243 258 199 692 
644 465 699 625 711 
645 272 682 655 685 
646 290 218 298 642 
647 591 520 647 710 
648 653 658 583 668 
649 269 617 641 717 
650 308 379 646 703 
651 615 634 474 662 
652 272 660 655 682 
653 615 662 474 699 
654 548 638 617 717 
655 535 613 606 661 
656 287 644 626 718 
657 655 586 679 683 
658 545 651 674 676 
659 550 652 673 675 
660 381 352 645 705 
661 260 654 681 688 
662 491 645 459 705 
663 490 626 645 718 
664 369 634 615 662 
665 431 167 168 649 
666 624 647 591 721 
667 655 660 586 683 
668 652 656 550 673 
669 545 657 651 676 
670 260 659 654 688 
671 385 647 624 722 
672 435 662 367 701 
673 385 647 309 710 
674 394 332 367 701 
675 210 655 546 676 
676 371 653 677 701 
677 299 615 262 665 
678 489 624 643 722 
679 281 643 624 721 
680 431 500 167 649 
681 474 502 635 699 
682 298 628 263 642 
683 581 667 616 713 
684 628 663 178 664 
685 486 454 646 703 
686 371 658 653 701 
687 290 172 218 642 
688 613 615 580 661 
689 614 536 663 664 
690 467 671 621 702 
691 495 620 669 704 
692 619 499 670 705 
693 370 650 616 667 
694 412 326 338 693 
695 446 412 338 693 
696 343 551 522 691 
697 620 493 677 706 
698 283 620 678 706 
699 471 622 672 703 
700 280 674 620 704 
701 595 681 626 708 
702 382 619 675 705 
703 522 327 343 691 
704 380 673 622 703 
705 268 621 676 702 
706 218 298 642 664 
707 540 531 321 667 
708 526 315 657 679 
709 478 685 621 707 
710 386 621 679 707 
711 182 635 217 665 
712 330 540 321 667 
713 483 617 682 709 
714 436 625 701 711 
715 617 372 683 709 
716 580 615 613 665 
717 195 528 570 668 
718 616 684 601 713 
719 579 628 614 663 
720 255 528 668 678 
721 502 292 635 699 
722 542 668 625 712 
723 255 528 195 668 
724 516 674 253 676 
725 232 516 253 676 
726 494 358 305 669 
727 494 669 305 671 
728 223 670 498 672 
729 241 223 498 672 
730 460 251 407 682 
731 251 197 407 682 
732 616 636 601 684 
733 418 322 390 680 
734 253 516 544 674 
735 197 407 682 685 
736 223 472 498 670 
737 172 218 642 664 
738 314 524 549 675 
739 494 468 358 669 
740 344 626 680 708 
741 353 563 335 679 
742 322 680 418 687 
743 335 679 563 683 
744 322 418 462 687 
745 330 321 368 667 
746 379 646 622 698 
747 252 681 555 688 
748 503 215 225 666 
749 262 615 299 635 
750 274 648 622 697 
751 619 644 277 690 
752 594 644 619 691 
753 491 645 619 690 
754 619 645 381 691 
755 252 208 555 681 
756 527 335 563 683 
757 532 252 555 688 
758 364 636 616 686 
759 525 329 316 700 
760 622 646 486 697 
761 622 648 589 698 
762 329 525 539 700 
763 633 654 680 687 
764 631 651 669 671 
765 394 625 662 700 
766 652 632 670 672 
767 501 508 430 634 
768 633 659 654 687 
769 501 430 187 634 
770 404 323 396 634 
771 416 503 225 666 
772 631 657 651 671 
773 352 459 645 705 
774 652 656 632 672 
775 171 605 536 663 
776 620 651 384 669 
777 278 652 619 670 
778 600 651 620 674 
779 227 288 711 712 
780 465 662 625 699 
781 604 619 652 675 
782 387 653 620 677 
783 620 653 596 678 
784 542 658 625 668 
785 520 309 647 710 
786 276 622 656 672 
787 374 657 621 671 
788 329 369 316 700 
789 454 308 646 703 
790 282 655 621 685 
791 616 650 475 726 
792 577 656 622 673 
793 502 201 292 699 
794 615 661 613 665 
795 572 621 657 676 
796 431 168 642 649 
797 584 621 655 679 
798 629 668 653 678 
799 591 590 710 721 
800 485 659 624 687 
801 485 687 624 722 
802 655 682 630 685 
803 271 624 659 688 
804 271 624 688 721 
805 654 633 681 688 
806 625 658 332 701 
807 629 658 653 668 
808 630 655 679 683 
809 651 631 674 676 
810 632 673 652 675 
811 227 711 668 712 
812 535 613 661 665 
813 655 660 630 682 
814 654 659 633 688 
815 377 385 710 722 
816 502 411 201 699 
817 630 660 655 683 
818 632 656 652 673 
819 651 657 631 676 
820 178 642 628 664 
821 653 629 677 701 
822 416 473 503 666 
823 476 699 465 711 
824 653 658 629 701 
825 699 711 288 712 
826 171 663 536 664 
827 625 668 711 712 
828 186 634 193 661 
829 330 320 530 667 
830 396 323 186 634 
831 464 360 677 701 
832 464 405 360 701 
833 628 642 298 664 
834 568 359 510 653 
835 442 630 480 707 
836 300 510 359 653 
837 523 633 592 708 
838 300 510 653 658 
839 172 166 218 664 
840 614 663 628 664 
841 474 411 502 699 
842 512 249 231 655 
843 378 630 302 707 
844 345 632 383 703 
845 396 404 634 661 
846 200 270 631 702 
847 318 464 360 677 
848 603 209 237 652 
849 357 598 336 651 
850 216 453 286 654 
851 603 652 237 656 
852 598 336 651 657 
853 453 216 461 659 
854 356 633 366 710 
855 209 603 578 652 
856 574 598 357 651 
857 453 654 216 659 
858 431 509 500 649 
859 299 635 615 665 
860 625 711 699 712 
861 447 448 632 703 
862 410 631 439 702 
863 403 324 649 663 
864 533 222 554 644 
865 234 220 432 641 
866 451 234 432 641 
867 222 533 239 644 
868 250 534 222 644 
869 534 554 222 644 
870 417 312 352 645 
871 417 352 459 645 
872 417 449 365 645 
873 330 530 540 667 
874 184 193 634 661 
875 263 642 628 666 
876 557 520 309 647 
877 365 312 417 645 
878 172 642 178 664 
879 450 414 233 643 
880 303 597 339 638 
881 330 370 320 667 
882 614 628 579 714 
883 263 628 298 714 
884 571 339 597 638 
885 308 351 425 646 
886 238 214 518 648 
887 340 557 309 647 
888 212 450 233 643 
889 466 477 629 711 
890 454 308 425 646 
891 343 327 393 691 
892 575 530 320 636 
893 518 214 560 648 
894 391 575 320 636 
895 375 338 326 693 
896 446 482 412 693 
897 551 593 522 691 
898 580 661 615 700 
899 420 634 397 662 
900 477 701 629 711 
901 501 187 181 634 
902 615 635 262 699 
903 628 663 579 667 
904 395 165 324 663 
905 629 668 265 711 
906 376 305 669 671 
907 396 634 186 661 
908 376 305 358 669 
909 418 680 487 687 
910 299 262 211 665 
911 535 606 180 661 
912 255 668 265 678 
913 418 487 462 687 
914 353 335 378 679 
915 314 341 383 675 
916 341 673 383 675 
917 255 195 265 668 
918 253 674 270 676 
919 232 253 270 676 
920 251 272 197 682 
921 555 681 592 688 
922 197 682 272 685 
923 335 378 679 683 
924 264 713 684 726 
925 215 642 263 666 
926 205 415 640 719 
927 532 555 592 688 
928 528 583 668 678 
929 311 426 348 650 
930 178 628 169 663 
931 252 260 208 681 
932 550 673 549 675 
933 545 674 516 676 
934 205 456 415 719 
935 439 669 494 671 
936 448 498 670 672 
937 460 407 480 682 
938 260 681 252 688 
939 407 480 682 685 
940 472 448 498 670 
941 439 468 494 669 
942 550 549 524 675 
943 528 583 570 668 
944 245 456 205 719 
945 545 544 516 674 
946 586 563 679 683 
947 322 366 680 687 
948 430 187 634 635 
949 322 366 390 680 
950 430 634 508 635 
951 391 575 636 715 
952 586 527 563 683 
953 431 642 509 649 
954 331 539 541 700 
955 391 602 575 715 
956 374 334 671 707 
957 351 425 646 716 
958 230 685 282 702 
959 560 648 214 720 
960 184 634 615 661 
961 351 349 425 716 
962 298 263 215 642 
963 560 214 247 720 
964 654 680 492 718 
965 266 660 682 717 
966 363 602 391 715 
967 425 349 497 716 
968 420 397 433 662 
969 628 664 298 714 
970 614 664 628 714 
971 306 433 397 662 
972 560 247 558 720 
973 573 683 660 717 
974 440 478 685 702 
975 543 202 674 678 
976 368 650 370 667 
977 408 333 669 677 
978 525 661 580 700 
979 421 467 671 707 
980 474 634 420 662 
981 240 681 654 718 
982 256 629 265 711 
983 265 668 629 678 
984 383 673 632 675 
985 579 663 531 667 
986 270 674 631 676 
987 630 679 378 683 
988 592 681 633 688 
989 630 682 480 685 
990 398 427 434 650 
991 539 331 329 700 
992 171 178 169 663 
993 398 649 427 650 
994 184 661 615 665 
995 477 677 629 701 
996 565 675 354 691 
997 397 634 369 662 
998 475 650 473 666 
999 426 311 434 650 
1000 439 631 669 671 
1001 448 670 632 672 
1002 248 429 670 690 
1003 436 701 477 711 
1004 633 680 366 687 
1005 275 719 640 720 
1006 392 646 715 716 
1007 273 648 719 720 
1008 342 673 556 698 
1009 262 635 292 699 
1010 398 434 311 650 
1011 203 672 413 697 
1012 457 716 640 719 
1013 559 636 715 720 
1014 350 715 636 716 
1015 632 673 383 703 
1016 270 676 631 702 
1017 650 666 475 726 
1018 631 674 270 704 
1019 383 675 632 705 
1020 576 715 648 720 
1021 378 679 630 707 
1022 535 661 180 665 
1023 629 677 477 706 
1024 265 678 629 706 
1025 227 265 668 711 
1026 631 671 439 702 
1027 646 716 470 719 
1028 209 578 534 652 
1029 448 672 632 703 
1030 630 683 378 709 
1031 633 681 592 708 
1032 371 318 360 677 
1033 592 688 633 710 
1034 580 613 607 665 
1035 630 685 480 707 
1036 480 682 630 709 
1037 209 534 250 652 
1038 264 289 713 726 
1039 476 261 699 711 
1040 568 514 307 653 
1041 359 568 307 653 
1042 371 677 360 701 
1043 301 689 445 693 
1044 307 514 574 651 
1045 366 680 633 708 
1046 512 210 249 655 
1047 199 515 692 696 
1048 330 368 370 667 
1049 591 590 520 710 
1050 574 357 307 651 
1051 439 669 631 704 
1052 448 632 670 705 
1053 633 687 366 710 
1054 331 394 329 700 
1055 210 512 546 655 
1056 394 662 369 700 
1057 172 178 166 664 
1058 379 308 380 703 
1059 473 509 503 642 
1060 268 230 282 702 
1061 381 382 352 705 
1062 259 286 428 654 
1063 374 386 334 707 
1064 375 326 372 709 
1065 482 483 412 709 
1066 437 493 704 706 
1067 590 688 710 721 
1068 495 437 493 704 
1069 184 186 193 661 
1070 453 428 286 654 
1071 476 261 411 699 
1072 508 420 474 634 
1073 499 491 459 705 
1074 531 579 614 663 
1075 476 411 465 699 
1076 321 403 368 663 
1077 414 461 233 659 
1078 595 593 551 708 
1079 377 385 309 710 
1080 344 343 393 708 
1081 198 513 566 660 
1082 233 461 216 659 
1083 377 710 687 722 
1084 526 315 336 657 
1085 526 336 598 657 
1086 231 198 566 660 
1087 300 541 510 658 
1088 525 613 580 661 
1089 169 628 178 642 
1090 617 682 660 717 
1091 518 237 238 656 
1092 541 300 331 658 
1093 660 683 617 717 
1094 518 603 237 656 
1095 626 680 654 718 
1096 316 369 404 661 
1097 421 478 467 707 
1098 267 724 694 727 
1099 465 474 662 699 
1100 473 427 649 650 
1101 694 724 599 728 
1102 488 723 695 725 
1103 440 467 478 702 
1104 684 713 616 726 
1105 471 454 486 703 
1106 654 681 626 718 
1107 695 723 362 729 
1108 416 475 473 666 
1109 165 649 324 663 
1110 398 368 649 650 
1111 262 299 292 635 
1112 259 654 428 718 
1113 198 513 660 717 
1114 615 634 184 635 
1115 435 433 367 662 
1116 397 404 369 634 
1117 380 383 673 703 
1118 270 268 676 702 
1119 378 386 679 707 
1120 383 382 675 705 
1121 280 270 674 704 
1122 427 509 473 649 
1123 508 474 502 635 
1124 372 378 683 709 
1125 493 477 677 706 
1126 265 283 678 706 
1127 590 688 592 710 
1128 595 592 681 708 
1129 394 369 329 700 
1130 480 483 682 709 
1131 467 439 671 702 
1132 448 471 672 703 
1133 478 480 685 707 
1134 398 368 403 649 
1135 261 201 411 699 
1136 169 628 649 663 
1137 366 344 680 708 
1138 439 495 669 704 
1139 448 670 499 705 
1140 377 366 687 710 
1141 461 487 453 659 
1142 640 719 627 720 
1143 487 654 453 659 
1144 279 237 652 656 
1145 336 376 651 657 
1146 627 715 646 716 
1147 627 719 648 720 
1148 510 583 653 658 
1149 275 273 719 720 
1150 300 653 371 658 
1151 568 510 583 653 
1152 636 715 627 716 
1153 357 336 376 651 
1154 279 237 209 652 
1155 535 180 185 665 
1156 300 359 371 653 
1157 627 715 636 720 
1158 640 716 627 719 
1159 263 666 628 714 
1160 628 667 579 714 
1161 272 231 655 660 
1162 249 272 231 655 
1163 534 209 75 578 
1164 222 533 77 239 
1165 586 655 512 660 
1166 648 715 627 720 
1167 184 183 182 635 
1168 533 222 77 554 
1169 76 222 250 534 
1170 76 222 534 554 
1171 209 534 75 250 
1172 234 432 53 451 
1173 119 326 338 412 
1174 412 338 119 446 
1175 432 234 53 220 
1176 352 417 109 312 
1177 417 352 109 459 
1178 627 716 646 719 
1179 193 184 634 635 
1180 350 392 715 716 
1181 159 568 514 307 
1182 603 550 652 656 
1183 307 159 568 359 
1184 559 715 576 720 
1185 545 598 651 657 
1186 457 470 716 719 
1187 566 586 512 660 
1188 195 528 94 570 
1189 89 512 210 249 
1190 309 147 520 557 
1191 55 407 251 197 
1192 55 407 460 251 
1193 249 88 512 231 
1194 603 550 578 652 
1195 574 545 598 651 
1196 216 654 260 659 
1197 528 195 94 255 
1198 171 536 174 664 
1199 143 327 343 522 
1200 522 343 143 551 
1201 216 286 260 654 
1202 160 510 568 359 
1203 121 302 355 442 
1204 442 355 121 441 
1205 510 160 300 359 
1206 89 512 546 210 
1207 147 309 340 557 
1208 566 512 88 231 
1209 306 367 433 662 
1210 253 516 91 544 
1211 410 58 438 254 
1212 253 516 232 91 
1213 58 410 200 254 
1214 37 205 456 415 
1215 447 107 345 328 
1216 140 341 314 549 
1217 314 140 549 524 
1218 107 447 419 328 
1219 37 205 245 456 
1220 105 425 308 351 
1221 238 72 518 214 
1222 488 479 723 725 
1223 285 724 267 727 
1224 585 599 724 728 
1225 624 710 688 721 
1226 465 411 474 699 
1227 414 47 233 461 
1228 450 48 233 414 
1229 563 154 353 335 
1230 479 637 723 725 
1231 110 417 365 312 
1232 158 514 574 307 
1233 110 417 449 365 
1234 307 574 158 357 
1235 47 216 233 461 
1236 233 212 48 450 
1237 154 563 527 335 
1238 425 454 105 308 
1239 72 560 518 214 
1240 156 598 526 336 
1241 322 112 418 390 
1242 46 286 216 453 
1243 336 526 156 315 
1244 112 418 462 322 
1245 453 216 46 461 
1246 87 513 566 198 
1247 79 252 208 555 
1248 145 313 356 523 
1249 198 566 87 231 
1250 555 79 252 532 
1251 523 356 145 567 
1252 472 41 223 498 
1253 74 209 603 578 
1254 152 597 571 339 
1255 574 598 157 357 
1256 45 259 286 428 
1257 494 124 358 468 
1258 541 510 161 300 
1259 184 615 635 665 
1260 585 724 639 728 
1261 41 241 223 498 
1262 209 237 74 603 
1263 357 598 157 336 
1264 597 152 303 339 
1265 453 45 286 428 
1266 124 358 305 494 
1267 687 710 624 722 
1268 193 634 187 635 
1269 71 558 560 247 
1270 237 518 73 603 
1271 238 518 73 237 
1272 214 71 560 247 
1273 161 541 300 331 
1274 373 693 638 728 
1275 267 694 641 727 
1276 484 641 693 727 
1277 285 637 724 727 
1278 416 475 666 726 
1279 647 695 362 729 
1280 638 694 599 728 
1281 347 362 723 729 
1282 488 695 643 725 
1283 104 497 425 349 
1284 347 723 639 729 
1285 351 104 425 349 
1286 52 234 451 727 
1287 587 696 647 729 
1288 643 696 258 725 
1289 339 571 151 728 
1290 324 165 170 649 
1291 320 391 135 575 
1292 340 148 557 729 
1293 450 212 49 725 
1294 227 668 226 712 
1295 530 330 134 320 
1296 391 363 136 602 
1297 602 136 391 575 
1298 575 135 320 530 
1299 184 635 182 665 
1300 538 557 148 729 
1301 196 234 52 727 
1302 406 52 451 727 
1303 92 543 202 674 
1304 339 151 325 728 
1305 565 141 354 675 
1306 333 408 126 677 
1307 202 543 93 678 
1308 220 54 432 682 
1309 450 49 409 725 
1310 288 699 261 711 
1311 125 408 333 669 
1312 248 429 42 670 
1313 239 533 78 681 
1314 365 393 312 645 
1315 479 637 689 723 
1316 153 597 303 683 
1317 56 230 440 685 
1318 162 539 541 331 
1319 155 315 526 679 
1320 552 204 80 688 
1321 210 546 90 676 
1322 212 284 49 725 
1323 511 151 571 728 
1324 544 543 92 674 
1325 226 95 582 668 
1326 531 321 133 540 
1327 449 111 365 680 
1328 468 408 125 669 
1329 472 42 429 670 
1330 163 525 329 316 
1331 623 723 695 729 
1332 350 636 686 716 
1333 565 524 141 675 
1334 321 330 133 540 
1335 542 582 668 712 
1336 443 337 113 687 
1337 202 253 92 674 
1338 139 556 342 673 
1339 314 354 141 675 
1340 139 342 341 673 
1341 210 90 232 676 
1342 123 334 421 671 
1343 275 640 684 720 
1344 490 645 690 718 
1345 464 126 408 677 
1346 255 202 93 678 
1347 397 306 130 433 
1348 163 525 539 329 
1349 585 692 639 724 
1350 318 333 126 677 
1351 543 528 93 678 
1352 222 239 287 644 
1353 420 397 130 433 
1354 694 724 618 727 
1355 460 432 54 682 
1356 220 251 54 682 
1357 197 230 56 685 
1358 489 643 695 722 
1359 392 646 698 715 
1360 552 80 532 688 
1361 315 155 353 679 
1362 582 95 570 668 
1363 273 648 697 719 
1364 287 690 644 718 
1365 339 375 303 638 
1366 208 239 78 681 
1367 153 303 335 683 
1368 269 641 694 717 
1369 695 723 623 725 
1370 618 724 694 728 
1371 450 489 414 643 
1372 148 340 304 729 
1373 333 358 125 669 
1374 42 223 248 670 
1375 40 413 203 672 
1376 593 533 554 644 
1377 417 490 449 645 
1378 555 78 533 681 
1379 153 527 597 683 
1380 462 443 113 687 
1381 241 40 203 672 
1382 123 305 334 671 
1383 308 379 351 646 
1384 234 269 220 641 
1385 451 432 482 641 
1386 238 274 214 648 
1387 557 591 520 647 
1388 647 696 591 721 
1389 111 390 365 680 
1390 69 244 561 684 
1391 226 195 95 668 
1392 155 526 563 679 
1393 186 323 189 634 
1394 575 601 530 636 
1395 559 684 636 720 
1396 82 515 199 696 
1397 491 417 459 645 
1398 285 637 692 724 
1399 111 449 418 680 
1400 115 463 388 695 
1401 546 516 90 676 
1402 123 421 494 671 
1403 43 429 248 690 
1404 56 440 407 685 
1405 142 565 354 691 
1406 301 445 118 693 
1407 181 187 193 634 
1408 594 554 534 644 
1409 250 222 277 644 
1410 312 381 352 645 
1411 64 502 201 292 
1412 616 666 650 726 
1413 470 697 646 719 
1414 204 252 80 688 
1415 576 698 648 715 
1416 549 556 139 673 
1417 281 696 643 721 
1418 322 113 337 687 
1419 253 544 92 674 
1420 548 571 597 638 
1421 457 686 640 716 
1422 385 695 647 722 
1423 168 167 169 649 
1424 281 212 233 643 
1425 100 427 434 398 
1426 40 498 413 672 
1427 225 34 215 503 
1428 195 570 95 668 
1429 314 141 524 675 
1430 358 468 125 669 
1431 42 472 223 670 
1432 548 694 638 717 
1433 342 556 138 698 
1434 234 641 451 727 
1435 318 126 464 677 
1436 93 528 255 678 
1437 85 219 537 694 
1438 203 413 39 697 
1439 347 689 639 723 
1440 549 139 341 673 
1441 301 117 445 689 
1442 330 530 134 540 
1443 516 232 90 676 
1444 486 454 425 646 
1445 527 153 335 683 
1446 391 320 364 636 
1447 460 54 251 682 
1448 518 560 589 648 
1449 563 353 155 679 
1450 311 348 370 650 
1451 555 208 78 681 
1452 561 519 69 684 
1453 426 102 348 686 
1454 40 241 498 672 
1455 305 123 494 671 
1456 69 221 244 684 
1457 83 199 515 692 
1458 211 224 97 607 
1459 571 339 638 728 
1460 111 418 390 680 
1461 115 423 463 695 
1462 348 101 426 311 
1463 201 502 64 411 
1464 311 100 434 398 
1465 385 340 309 647 
1466 197 56 407 685 
1467 503 225 34 416 
1468 319 342 138 698 
1469 203 39 246 697 
1470 115 388 317 695 
1471 322 462 113 687 
1472 252 532 80 688 
1473 82 199 236 696 
1474 515 82 553 696 
1475 409 49 284 725 
1476 452 429 43 690 
1477 207 43 248 690 
1478 142 354 327 691 
1479 35 228 455 726 
1480 228 35 225 726 
1481 230 440 685 702 
1482 481 689 637 727 
1483 565 142 522 691 
1484 118 338 301 693 
1485 446 118 445 693 
1486 475 426 434 650 
1487 405 435 128 701 
1488 162 539 331 329 
1489 264 684 640 726 
1490 340 557 647 729 
1491 421 671 334 707 
1492 450 643 212 725 
1493 426 469 102 686 
1494 301 361 117 689 
1495 640 686 496 726 
1496 639 692 588 729 
1497 406 196 52 727 
1498 85 537 547 694 
1499 517 97 224 607 
1500 511 325 151 728 
1501 85 235 219 694 
1502 422 445 117 689 
1503 310 348 102 686 
1504 83 515 564 692 
1505 180 661 184 665 
1506 148 304 538 729 
1507 623 639 637 689 
1508 389 639 689 728 
1509 199 83 242 692 
1510 529 138 556 698 
1511 618 639 637 692 
1512 244 684 264 713 
1513 458 39 413 697 
1514 519 221 69 684 
1515 561 601 684 713 
1516 615 700 699 712 
1517 627 640 636 686 
1518 115 317 423 695 
1519 466 436 477 711 
1520 628 642 169 649 
1521 374 376 657 671 
1522 276 656 279 672 
1523 243 692 637 725 
1524 638 641 617 694 
1525 479 637 481 689 
1526 384 651 376 669 
1527 617 641 638 693 
1528 278 279 652 670 
1529 433 474 420 662 
1530 636 640 627 684 
1531 492 654 487 680 
1532 553 82 236 696 
1533 207 452 43 690 
1534 327 522 142 691 
1535 310 102 469 686 
1536 118 446 338 693 
1537 35 455 416 726 
1538 306 397 369 662 
1539 319 138 529 698 
1540 588 639 585 692 
1541 61 466 424 256 
1542 375 638 373 693 
1543 487 659 485 687 
1544 458 246 39 697 
1545 643 647 624 696 
1546 465 436 476 711 
1547 256 424 61 213 
1548 644 645 626 690 
1549 626 645 644 691 
1550 627 648 646 698 
1551 422 117 361 689 
1552 646 648 627 697 
1553 624 647 643 695 
1554 269 641 267 694 
1555 275 640 264 684 
1556 127 360 464 405 
1557 596 653 583 678 
1558 371 653 387 677 
1559 127 360 318 464 
1560 266 660 272 682 
1561 547 235 85 694 
1562 350 636 364 686 
1563 484 641 482 693 
1564 277 644 287 690 
1565 593 644 594 691 
1566 490 645 491 690 
1567 381 645 393 691 
1568 564 242 83 692 
1569 367 128 435 701 
1570 282 272 655 685 
1571 489 643 488 695 
1572 591 647 587 696 
1573 562 346 150 728 
1574 273 648 274 697 
1575 205 415 36 726 
1576 379 392 646 698 
1577 149 346 562 729 
1578 257 444 50 725 
1579 101 434 426 311 
1580 168 169 642 649 
1581 572 657 545 676 
1582 444 257 51 727 
1583 577 550 656 673 
1584 470 486 646 697 
1585 589 648 576 698 
1586 201 262 292 699 
1587 258 643 281 696 
1588 583 658 542 668 
1589 584 655 586 679 
1590 540 579 531 667 
1591 362 647 385 695 
1592 35 416 225 726 
1593 559 601 636 684 
1594 285 637 243 692 
1595 457 496 640 686 
1596 240 260 654 681 
1597 525 580 539 700 
1598 586 660 573 683 
1599 473 434 427 650 
1600 288 227 226 712 
1601 271 659 260 688 
1602 389 639 347 689 
1603 215 263 225 666 
1604 599 638 548 694 
1605 545 651 600 674 
1606 604 652 550 675 
1607 332 658 371 701 
1608 291 182 22 217 
1609 19 431 500 167 
1610 396 186 323 189 
1611 536 605 171 174 
1612 416 666 225 726 
1613 405 128 360 701 
1614 666 713 289 726 
1615 217 182 22 183 
1616 542 569 582 712 
1617 431 19 168 167 
1618 433 367 129 435 
1619 257 50 284 725 
1620 621 657 631 671 
1621 632 656 622 672 
1622 455 36 415 726 
1623 444 409 50 725 
1624 622 656 632 673 
1625 631 657 621 676 
1626 625 658 629 668 
1627 304 346 149 729 
1628 562 150 511 728 
1629 444 51 406 727 
1630 631 651 620 669 
1631 619 652 632 670 
1632 625 668 629 711 
1633 620 651 631 674 
1634 632 652 619 675 
1635 620 653 629 677 
1636 629 653 620 678 
1637 562 538 149 729 
1638 325 150 346 728 
1639 205 36 228 726 
1640 398 311 368 650 
1641 630 655 621 679 
1642 621 655 630 685 
1643 633 654 626 680 
1644 630 660 617 682 
1645 244 264 289 713 
1646 367 360 128 701 
1647 617 660 630 683 
1648 626 654 633 681 
1649 624 659 633 687 
1650 257 196 51 727 
1651 346 562 639 728 
1652 257 637 444 725 
1653 415 205 640 726 
1654 633 659 624 688 
1655 227 288 261 711 
1656 562 346 639 729 
1657 400 194 609 661 
1658 629 701 625 711 
1659 444 637 257 727 
1660 505 427 402 649 
1661 561 581 601 713 
1662 629 658 625 701 
1663 623 723 637 725 
1664 396 186 188 661 
1665 256 265 227 711 
1666 639 724 618 728 
1667 129 306 367 433 
1668 169 649 165 663 
1669 618 724 637 727 
1670 173 605 171 663 
1671 639 723 623 729 
1672 435 465 433 662 
1673 185 180 184 665 
1674 492 428 654 718 
1675 623 689 637 723 
1676 639 692 618 724 
1677 618 692 637 724 
1678 504 401 397 634 
1679 639 689 623 723 
1680 623 695 647 729 
1681 215 507 295 642 
1682 622 673 632 703 
1683 631 676 621 702 
1684 620 674 631 704 
1685 631 669 620 704 
1686 620 677 629 706 
1687 629 678 620 706 
1688 621 671 631 702 
1689 513 573 660 717 
1690 632 672 622 703 
1691 619 670 632 705 
1692 632 675 619 705 
1693 266 198 660 717 
1694 316 400 609 661 
1695 641 694 618 727 
1696 627 686 636 716 
1697 638 693 618 728 
1698 618 693 641 727 
1699 617 694 641 717 
1700 630 679 621 707 
1701 259 240 654 718 
1702 430 31 501 187 
1703 621 685 630 707 
1704 638 694 617 717 
1705 623 696 643 725 
1706 618 694 638 728 
1707 633 680 626 708 
1708 261 63 476 411 
1709 640 686 627 716 
1710 626 681 633 708 
1711 630 682 617 709 
1712 617 683 630 709 
1713 571 638 599 728 
1714 643 695 623 725 
1715 633 688 624 710 
1716 624 687 633 710 
1717 647 696 623 729 
1718 373 638 339 728 
1719 627 698 646 715 
1720 636 684 627 720 
1721 643 696 624 721 
1722 624 696 647 721 
1723 587 647 557 729 
1724 488 643 450 725 
1725 648 698 627 715 
1726 624 695 643 722 
1727 627 684 640 720 
1728 267 641 234 727 
1729 451 641 484 727 
1730 400 188 194 661 
1731 552 204 688 721 
1732 627 697 648 719 
1733 647 695 624 722 
1734 626 690 645 718 
1735 636 640 616 686 
1736 646 697 627 719 
1737 644 690 626 718 
1738 616 640 636 684 
1739 226 668 582 712 
1740 340 647 362 729 
1741 637 639 618 689 
1742 443 337 687 722 
1743 637 639 623 692 
1744 410 439 467 702 
1745 610 179 399 663 
1746 447 471 448 703 
1747 175 167 500 649 
1748 638 641 618 693 
1749 618 641 638 694 
1750 200 268 270 702 
1751 345 383 380 703 
1752 619 645 644 690 
1753 644 645 619 691 
1754 610 399 321 663 
1755 382 383 328 705 
1756 280 254 270 704 
1757 643 647 623 695 
1758 623 647 643 696 
1759 386 378 302 707 
1760 622 648 646 697 
1761 646 648 622 698 
1762 590 592 567 710 
1763 493 424 477 706 
1764 265 213 283 706 
1765 523 592 595 708 
1766 212 643 258 725 
1767 372 355 378 709 
1768 209 250 278 652 
1769 307 357 384 651 
1770 483 480 441 709 
1771 344 366 313 708 
1772 500 505 175 649 
1773 388 695 463 723 
1774 569 700 580 712 
1775 512 584 546 655 
1776 568 596 514 653 
1777 359 307 387 653 
1778 210 282 249 655 
1779 244 561 684 713 
1780 442 480 478 707 
1781 294 211 611 665 
1782 604 534 578 652 
1783 574 514 600 651 
1784 453 492 428 654 
1785 219 537 694 724 
1786 438 495 439 704 
1787 448 499 419 705 
1788 356 366 377 710 
1789 259 240 286 654 
1790 414 485 461 659 
1791 261 201 63 411 
1792 293 298 664 714 
1793 614 608 664 714 
1794 238 237 276 656 
1795 336 315 374 657 
1796 300 332 331 658 
1797 409 284 50 725 
1798 231 266 198 660 
1799 402 175 505 649 
1800 31 181 501 187 
1801 233 216 271 659 
1802 306 394 367 662 
1803 513 573 566 660 
1804 206 289 666 713 
1805 610 173 179 663 
1806 504 192 401 634 
1807 542 510 541 658 
1808 36 455 228 726 
1809 538 304 149 729 
1810 172 10 290 218 
1811 325 511 150 728 
1812 51 196 406 727 
1813 572 526 598 657 
1814 263 206 289 666 
1815 577 603 518 656 
1816 206 713 666 714 
1817 581 521 667 713 
1818 517 569 580 712 
1819 176 290 295 642 
1820 296 506 502 635 
1821 640 684 616 726 
1822 263 206 666 714 
1823 637 689 618 727 
1824 176 431 168 642 
1825 479 444 637 725 
1826 257 637 285 727 
1827 521 579 581 667 
1828 415 640 496 726 
1829 616 686 640 726 
1830 521 667 713 714 
1831 481 637 444 727 
1832 347 639 346 729 
1833 571 599 511 728 
1834 346 639 389 728 
1835 623 692 639 729 
1836 562 585 639 728 
1837 264 640 205 726 
1838 562 639 588 729 
1839 504 181 192 634 
1840 70 221 519 720 
1841 637 692 623 725 
1842 618 689 639 728 
1843 401 192 189 634 
1844 207 44 452 718 
1845 521 579 667 714 
1846 181 504 501 634 
1847 507 431 176 642 
1848 86 235 547 717 
1849 587 557 538 729 
1850 243 637 257 725 
1851 409 488 450 725 
1852 196 267 234 727 
1853 451 484 406 727 
1854 325 373 339 728 
1855 469 103 310 716 
1856 530 581 540 667 
1857 304 340 362 729 
1858 319 529 137 715 
1859 229 60 437 706 
1860 437 59 229 704 
1861 246 458 38 719 
1862 326 412 120 709 
1863 444 481 479 637 
1864 144 551 343 708 
1865 108 459 352 705 
1866 373 375 339 638 
1867 450 488 489 643 
1868 401 189 323 634 
1869 520 146 309 710 
1870 350 686 310 716 
1871 379 392 351 646 
1872 585 588 562 639 
1873 334 122 421 707 
1874 214 274 273 648 
1875 557 587 591 647 
1876 264 275 205 640 
1877 269 234 267 641 
1878 482 484 451 641 
1879 381 312 393 645 
1880 593 554 594 644 
1881 287 277 222 644 
1882 417 491 490 645 
1883 230 57 440 702 
1884 284 212 258 725 
1885 190 182 291 665 
1886 81 553 236 721 
1887 308 454 106 703 
1888 172 169 178 642 
1889 350 364 310 686 
1890 235 269 694 717 
1891 415 457 496 640 
1892 215 507 33 295 
1893 427 402 99 505 
1894 452 490 690 718 
1895 423 317 114 722 
1896 458 697 470 719 
1897 211 611 98 294 
1898 547 694 548 717 
1899 170 165 169 649 
1900 275 684 221 720 
1901 225 289 228 726 
1902 346 347 389 639 
1903 340 385 362 647 
1904 479 481 422 689 
1905 207 690 287 718 
1906 391 364 350 636 
1907 575 559 601 636 
1908 559 519 684 720 
1909 437 704 229 706 
1910 236 696 281 721 
1911 564 588 585 692 
1912 319 392 698 715 
1913 616 713 666 726 
1914 479 689 422 723 
1915 374 305 376 671 
1916 273 697 246 719 
1917 276 279 241 672 
1918 269 267 235 694 
1919 418 492 487 680 
1920 290 176 172 642 
1921 576 589 560 648 
1922 278 223 279 670 
1923 358 384 376 669 
1924 585 564 692 724 
1925 275 264 221 684 
1926 338 375 373 693 
1927 446 484 482 693 
1928 207 277 287 690 
1929 490 491 452 690 
1930 327 381 393 691 
1931 593 594 522 691 
1932 195 227 265 668 
1933 572 545 516 676 
1934 236 258 281 696 
1935 285 692 242 724 
1936 577 549 550 673 
1937 378 386 353 679 
1938 470 458 486 697 
1939 294 190 291 665 
1940 487 485 462 687 
1941 380 383 341 673 
1942 65 502 296 506 
1943 591 696 553 721 
1944 232 270 268 676 
1945 529 698 576 715 
1946 225 666 289 726 
1947 280 270 253 674 
1948 335 372 378 683 
1949 383 382 314 675 
1950 425 470 486 646 
1951 590 532 592 688 
1952 285 257 243 637 
1953 528 596 583 678 
1954 281 258 212 643 
1955 489 695 423 722 
1956 318 371 387 677 
1957 595 592 555 681 
1958 571 548 599 638 
1959 240 208 260 681 
1960 361 116 422 723 
1961 402 427 398 649 
1962 282 197 272 685 
1963 266 272 251 682 
1964 464 493 477 677 
1965 376 384 357 651 
1966 278 279 209 652 
1967 255 265 283 678 
1968 317 695 385 722 
1969 553 591 587 696 
1970 397 401 504 131 
1971 487 492 453 654 
1972 273 274 246 697 
1973 276 237 279 656 
1974 374 376 336 657 
1975 460 480 483 682 
1976 379 319 392 698 
1977 489 488 423 695 
1978 285 243 242 692 
1979 529 589 576 698 
1980 564 84 242 724 
1981 457 469 686 716 
1982 400 609 164 316 
1983 487 461 485 659 
1984 424 437 60 706 
1985 229 213 60 706 
1986 317 362 385 695 
1987 547 599 548 694 
1988 321 399 610 132 
1989 559 519 601 684 
1990 520 567 146 710 
1991 183 191 217 635 
1992 478 480 407 685 
1993 551 144 523 708 
1994 437 438 59 704 
1995 144 343 313 708 
1996 254 229 59 704 
1997 352 328 108 705 
1998 583 596 568 653 
1999 334 302 122 707 
2000 326 120 355 709 
2001 662 699 615 700 
2002 625 699 662 700 
2003 387 371 359 653 
2004 441 120 412 709 
2005 230 200 57 702 
2006 308 106 345 703 
2007 436 405 477 701 
2008 108 419 459 705 
2009 249 282 272 655 
2010 231 272 266 660 
2011 300 371 332 658 
2012 416 455 475 726 
2013 271 260 252 688 
2014 397 420 504 634 
2015 544 545 600 674 
2016 586 584 512 655 
2017 604 550 524 675 
2018 400 396 188 661 
2019 421 122 442 707 
2020 361 689 347 723 
2021 443 687 485 722 
2022 448 471 498 672 
2023 467 439 494 671 
2024 552 688 590 721 
2025 570 583 542 668 
2026 57 410 440 702 
2027 10 172 166 218 
2028 146 356 309 710 
2029 584 586 563 679 
2030 583 510 542 658 
2031 296 217 191 635 
2032 457 469 496 686 
2033 170 402 324 649 
2034 454 447 106 703 
2035 566 573 586 660 
2036 609 525 316 661 
2037 390 366 344 680 
2038 219 694 267 724 
2039 488 463 695 723 
2040 389 347 361 689 
2041 377 366 322 687 
2042 527 586 573 683 
2043 599 694 537 724 
2044 191 430 506 635 
2045 507 176 295 642 
2046 271 688 204 721 
2047 424 60 213 706 
2048 603 577 550 656 
2049 448 472 499 670 
2050 439 495 468 669 
2051 545 572 598 657 
2052 215 503 507 642 
2053 388 362 695 723 
2054 313 523 144 708 
2055 240 260 286 654 
2056 254 59 438 704 
2057 57 200 410 702 
2058 441 355 120 709 
2059 447 345 106 703 
2060 108 328 419 705 
2061 337 377 687 722 
2062 604 578 550 652 
2063 260 271 216 659 
2064 545 574 600 651 
2065 363 319 137 715 
2066 302 442 122 707 
2067 70 519 558 720 
2068 146 567 356 710 
2069 247 221 70 720 
2070 207 259 44 718 
2071 169 165 171 663 
2072 402 170 175 649 
2073 469 497 103 716 
2074 452 44 428 718 
2075 349 310 103 716 
2076 86 547 513 717 
2077 246 38 245 719 
2078 198 235 86 717 
2079 193 187 184 635 
2080 321 531 610 663 
2081 602 137 529 715 
2082 221 684 519 720 
2083 184 180 186 661 
2084 285 219 267 724 
2085 585 599 537 724 
2086 488 479 463 723 
2087 610 605 173 663 
2088 452 690 207 718 
2089 456 38 458 719 
2090 235 694 547 717 
2091 310 686 469 716 
2092 443 485 489 722 
2093 456 470 457 719 
2094 490 428 492 718 
2095 591 552 590 721 
2096 275 273 245 719 
2097 573 513 548 717 
2098 553 81 552 721 
2099 266 269 198 717 
2100 271 204 281 721 
2101 319 698 529 715 
2102 576 558 559 720 
2103 458 246 697 719 
2104 247 273 275 720 
2105 114 443 423 722 
2106 323 28 396 189 
2107 569 541 539 700 
2108 257 285 196 727 
2109 628 666 650 667 
2110 650 666 616 667 
2111 13 605 536 174 
2112 211 607 611 665 
2113 81 236 204 721 
2114 392 350 349 716 
2115 347 346 304 729 
2116 16 324 395 165 
2117 473 475 434 650 
2118 415 496 455 726 
2119 606 25 535 180 
2120 114 317 337 722 
2121 236 553 696 721 
2122 479 409 444 725 
2123 346 389 325 728 
2124 180 609 194 661 
2125 317 423 695 722 
2126 360 332 371 701 
2127 337 385 377 722 
2128 562 511 585 728 
2129 430 191 187 635 
2130 406 481 444 727 
2131 559 602 576 715 
2132 388 347 362 723 
2133 538 562 588 729 
2134 284 243 257 725 
2135 228 264 205 726 
2136 116 463 422 723 
2137 361 388 116 723 
2138 457 470 497 716 
2139 422 689 361 723 
2140 363 350 392 715 
2141 564 242 692 724 
2142 370 368 311 650 
2143 564 537 84 724 
2144 219 242 84 724 
2145 259 287 240 718 
2146 191 506 296 635 
2147 502 292 296 635 
2148 297 612 66 664 
2149 666 667 628 714 
2150 699 700 625 712 
2151 190 294 611 665 
2152 165 399 179 663 
2153 226 227 195 668 
2154 465 474 433 662 
2155 306 369 394 662 
2156 315 353 386 679 
2157 342 380 341 673 
2158 203 276 241 672 
2159 232 268 210 676 
2160 374 334 305 671 
2161 240 239 208 681 
2162 202 280 253 674 
2163 382 354 314 675 
2164 333 384 358 669 
2165 248 223 278 670 
2166 524 565 604 675 
2167 532 590 552 688 
2168 544 600 543 674 
2169 443 462 485 687 
2170 303 372 335 683 
2171 333 318 387 677 
2172 543 596 528 678 
2173 407 440 478 685 
2174 464 408 493 677 
2175 255 283 202 678 
2176 483 432 460 682 
2177 266 251 220 682 
2178 282 230 197 685 
2179 570 542 582 668 
2180 468 495 408 669 
2181 472 429 499 670 
2182 492 418 449 680 
2183 573 597 527 683 
2184 546 572 516 676 
2185 584 563 526 679 
2186 555 533 595 681 
2187 549 577 556 673 
2188 561 601 519 684 
2189 349 103 497 716 
2190 602 363 137 715 
2191 247 70 558 720 
2192 337 377 322 687 
2193 390 344 365 680 
2194 198 86 513 717 
2195 259 428 44 718 
2196 186 396 28 189 
2197 605 13 171 174 
2198 388 362 317 695 
2199 405 436 435 701 
2200 456 245 38 719 
2201 252 204 271 688 
2202 236 199 258 696 
2203 221 264 244 684 
2204 409 479 488 725 
2205 304 362 347 729 
2206 348 310 364 686 
2207 421 467 494 671 
2208 556 589 529 698 
2209 293 263 298 714 
2210 413 486 458 697 
2211 614 579 608 714 
2212 565 522 594 691 
2213 588 587 538 729 
2214 267 196 285 727 
2215 406 484 481 727 
2216 599 585 511 728 
2217 389 373 325 728 
2218 496 475 455 726 
2219 248 277 207 690 
2220 452 491 429 690 
2221 327 354 381 691 
2222 413 498 471 672 
2223 373 301 338 693 
2224 445 484 446 693 
2225 201 261 288 699 
2226 422 481 445 689 
2227 469 426 496 686 
2228 488 463 423 695 
2229 264 228 289 726 
2230 246 274 203 697 
2231 342 319 379 698 
2232 267 219 235 694 
2233 553 587 515 696 
2234 588 564 515 692 
2235 609 180 606 661 
2236 547 537 599 694 
2237 389 361 301 689 
2238 666 713 667 714 
2239 243 199 242 692 
2240 65 502 292 296 
2241 244 68 561 713 
2242 507 215 33 503 
2243 402 427 99 398 
2244 131 504 397 420 
2245 611 211 98 607 
2246 284 258 243 725 
2247 204 552 81 721 
2248 132 610 321 531 
2249 525 164 609 316 
2250 226 582 96 712 
2251 114 337 443 722 
2252 616 667 666 713 
2253 476 466 62 711 
2254 165 395 399 663 
2255 388 463 116 723 
2256 192 181 189 634 
2257 219 84 537 724 
2258 180 194 188 661 
2259 62 261 476 711 
2260 466 256 62 711 
2261 360 367 332 701 
2262 298 215 290 642 
2263 324 398 403 649 
2264 396 28 188 186 
2265 173 13 171 605 
2266 420 508 501 634 
2267 244 206 68 713 
2268 521 561 68 713 
2269 96 224 226 712 
2270 324 16 170 165 
2271 297 66 293 664 
2272 612 608 66 664 
2273 25 185 535 180 
2274 193 189 181 634 
2275 396 316 404 661 
2276 299 211 291 665 
2277 525 606 613 661 
2278 521 68 206 713 
2279 517 96 582 712 
2280 398 324 402 649 
2281 323 404 397 634 
2282 427 500 509 649 
2283 165 179 173 663 
2284 431 503 509 642 
2285 96 517 224 712 
2286 614 605 531 663 
2287 505 500 427 649 
2288 403 321 395 663 
2289 297 166 177 664 
2290 297 218 166 664 
2291 62 256 261 711 
2292 186 189 193 634 
2293 171 174 178 664 
2294 218 293 298 664 
2295 608 536 614 664 
2296 167 500 20 175 
2297 291 23 182 190 
2298 504 420 501 634 
2299 612 177 174 664 
2300 535 607 613 665 
2301 559 558 519 720 
2302 547 548 513 717 
2303 401 323 397 634 
2304 612 174 536 664 
2305 349 350 310 716 
2306 319 363 392 715 
2307 217 292 299 635 
2308 190 291 23 294 
2309 505 20 500 175 
2310 452 428 490 718 
2311 247 275 221 720 
2312 245 273 246 719 
2313 259 207 287 718 
2314 457 497 469 716 
2315 21 217 183 191 
2316 235 198 269 717 
2317 168 176 18 431 
2318 458 470 456 719 
2319 182 185 184 665 
2320 168 169 172 642 
2321 502 430 508 635 
2322 236 281 204 721 
2323 602 529 576 715 
2324 217 21 296 191 
2325 489 423 443 722 
2326 316 396 400 661 
2327 591 553 552 721 
2328 609 606 525 661 
2329 176 507 18 431 
2330 24 190 611 535 
2331 344 313 343 708 
2332 317 385 337 722 
2333 176 168 172 642 
2334 520 590 567 710 
2335 463 479 422 723 
2336 345 380 308 703 
2337 230 268 200 702 
2338 419 499 459 705 
2339 608 293 66 664 
2340 438 437 495 704 
2341 254 280 229 704 
2342 352 382 328 705 
2343 229 283 213 706 
2344 437 424 493 706 
2345 302 334 386 707 
2346 372 326 355 709 
2347 421 442 478 707 
2348 412 483 441 709 
2349 219 285 242 724 
2350 388 361 347 723 
2351 523 595 551 708 
2352 215 295 290 642 
2353 440 410 467 702 
2354 447 454 471 703 
2355 585 537 564 724 
2356 175 170 167 649 
2357 356 377 309 710 
2358 503 431 507 642 
2359 610 531 605 663 
2360 612 297 177 664 
2361 187 183 184 635 
2362 321 399 395 663 
2363 170 169 167 649 
2364 166 178 174 664 
2365 187 191 183 635 
2366 181 504 32 501 
2367 172 9 176 290 
2368 295 176 9 290 
2369 32 192 504 181 
2370 436 466 476 711 
2371 294 291 211 665 
2372 217 296 292 635 
2373 67 293 608 714 
2374 166 297 11 218 
2375 502 506 430 635 
2376 191 430 30 506 
2377 177 297 11 166 
2378 608 293 664 714 
2379 263 289 225 666 
2380 540 581 579 667 
2381 607 535 611 665 
2382 521 713 206 714 
2383 187 430 30 191 
2384 170 402 15 324 
2385 190 24 185 535 
2386 288 226 224 712 
2387 580 569 539 700 
2388 288 262 201 699 
2389 206 244 289 713 
2390 15 175 402 170 
2391 581 561 521 713 
2392 177 166 174 664 
2393 26 180 609 194 
2394 399 17 165 179 
2395 188 186 180 661 
2396 521 206 67 714 
2397 190 185 182 665 
2398 173 171 165 663 
2399 227 261 256 711 
2400 582 569 517 712 
2401 67 206 293 714 
2402 608 521 67 714 
2403 165 395 17 399 
2404 180 606 26 609 
2405 207 44 43 452 
2406 250 75 76 534 
2407 77 222 76 554 
2408 43 42 248 429 
2409 52 53 451 234 
2410 119 120 326 412 
2411 460 54 55 251 
2412 301 117 118 445 
2413 118 119 338 446 
2414 150 151 511 325 
2415 51 52 406 196 
2416 53 54 432 220 
2417 537 85 84 219 
2418 59 60 437 229 
2419 424 60 61 213 
2420 417 110 109 312 
2421 327 143 142 522 
2422 125 126 333 408 
2423 92 93 202 543 
2424 514 158 159 307 
2425 120 121 355 441 
2426 78 79 208 555 
2427 538 148 149 304 
2428 313 145 144 523 
2429 83 82 515 199 
2430 513 87 86 198 
2431 57 58 410 200 
2432 516 90 232 91 
2433 146 309 147 520 
2434 512 89 88 249 
2435 80 81 204 552 
2436 55 56 407 197 
2437 142 141 354 565 
2438 459 109 108 352 
2439 318 126 127 464 
2440 93 94 255 528 
2441 245 38 37 456 
2442 558 71 70 247 
2443 447 107 106 345 
2444 140 139 341 549 
2445 519 70 69 221 
2446 205 37 36 415 
2447 140 314 141 524 
2448 107 419 108 328 
2449 144 143 343 551 
2450 77 78 239 533 
2451 85 547 86 235 
2452 149 150 562 346 
2453 564 84 83 242 
2454 91 92 253 544 
2455 58 59 438 254 
2456 159 160 568 359 
2457 561 69 68 244 
2458 121 122 302 442 
2459 510 160 161 300 
2460 553 81 236 82 
2461 56 57 440 230 
2462 79 80 252 532 
2463 90 89 546 210 
2464 88 87 566 231 
2465 356 146 145 567 
2466 340 147 557 148 
2467 426 102 101 348 
2468 228 36 35 455 
2469 122 123 334 421 
2470 246 39 38 458 
2471 139 138 342 556 
2472 560 72 71 214 
2473 454 106 105 308 
2474 153 154 527 335 
2475 212 49 48 450 
2476 113 112 462 322 
2477 423 114 317 115 
2478 47 46 216 461 
2479 155 156 526 315 
2480 541 161 162 331 
2481 42 41 223 472 
2482 209 74 75 578 
2483 152 571 151 339 
2484 361 116 117 422 
2485 449 111 110 365 
2486 50 51 444 257 
2487 45 44 259 428 
2488 574 157 158 357 
2489 125 358 124 468 
2490 563 154 155 353 
2491 48 47 233 414 
2492 114 113 443 337 
2493 518 73 72 238 
2494 138 137 319 529 
2495 203 40 39 413 
2496 73 74 237 603 
2497 241 41 40 498 
2498 115 116 388 463 
2499 409 49 50 284 
2500 597 152 153 303 
2501 112 111 418 390 
2502 46 45 286 453 
2503 598 156 157 336 
2504 123 124 305 494 
2505 135 134 320 530 
2506 469 103 102 310 
2507 425 105 104 351 
2508 94 95 195 570 
2509 497 104 103 349 
2510 20 19 500 167 
2511 22 23 182 291 
2512 95 96 226 582 
2513 137 136 363 602 
2514 136 135 391 575 
2515 130 131 397 420 
2516 133 132 321 531 
2517 525 163 164 316 
2518 34 33 215 503 
2519 427 100 99 398 
2520 502 64 65 292 
2521 172 10 9 290 
2522 97 98 211 607 
2523 608 67 66 293 
2524 127 128 360 405 
2525 128 129 367 435 
2526 12 174 612 177 
2527 293 218 297 664 
2528 536 608 612 664 
2529 27 189 401 192 
2530 466 61 62 256 
2531 206 263 293 714 
2532 579 521 608 714 
2533 476 62 63 261 
2534 129 130 306 433 
2535 22 21 217 183 
2536 168 18 19 431 
2537 134 133 330 540 
2538 539 162 163 329 
2539 189 323 27 401 
2540 174 536 12 612 
2541 430 30 31 187 
2542 434 101 100 311 
2543 225 35 34 416 
2544 201 64 63 411 
2545 96 97 224 517 
2546 181 32 31 501 
2547 68 67 521 206 
2548 188 400 29 396 
2549 173 610 14 605 
2550 166 11 10 218 
2551 170 15 16 324 
2552 185 24 25 535 
2553 175 505 4 402 
2554 176 2 507 295 
2555 5 190 294 611 
2556 191 6 296 506 
2557 17 16 395 165 
2558 606 26 25 180 
2559 192 401 8 504 
2560 297 1 612 177 
2561 173 14 13 605 
2562 29 28 188 396 
2563 14 179 610 173 
2564 400 29 194 188 
2565 179 399 3 610 
2566 194 609 7 400 
2567 505 4 20 175 
2568 190 23 5 294 
2569 190 5 24 611 
2570 175 4 15 402 
2571 507 18 2 176 
2572 296 21 6 191 
2573 192 8 32 504 
2574 297 11 1 177 
2575 1 12 612 177 
2576 401 8 27 192 
2577 296 6 65 506 
2578 612 66 1 297 
2579 504 401 8 131 
2580 507 2 33 295 
2581 505 99 4 402 
2582 5 294 98 611 
2583 609 164 7 400 
2584 610 399 3 132 
2585 9 2 176 295 
2586 30 6 191 506 
2587 27 28 323 189 
2588 536 12 13 174 
2589 179 3 14 610 
2590 194 7 29 400 
2591 399 3 17 179 
2592 609 7 26 194 
2593 700 542 712 569 
2594 700 712 542 625 
2595 345 705 447 328 
2596 447 705 345 703 
2597 709 630 442 707 
2598 700 658 542 541 
2599 700 542 658 625 
2600 717 683 548 573 
2601 717 548 683 617 
2602 705 345 383 328 
2603 705 383 345 632 
2604 704 200 270 631 
2605 704 270 200 254 
2606 466 706 477 424 
2607 477 706 466 629 
2608 709 302 378 630 
2609 709 378 302 355 
2610 705 447 448 632 
2611 705 448 447 419 
2612 704 410 439 438 
2613 704 439 410 631 
2614 710 523 592 567 
2615 710 592 523 633 
2616 708 356 366 313 
2617 708 366 356 633 
2618 706 256 265 213 
2619 706 265 256 629 
2620 706 280 229 283 
2621 706 229 280 704 
2622 217 665 299 291 
2623 299 665 217 635 
2624 672 223 279 241 
2625 672 279 223 670 
2626 701 464 477 677 
2627 701 477 464 405 
2628 675 341 549 314 
2629 675 549 341 673 
2630 512 660 231 566 
2631 231 660 512 655 
2632 715 575 559 602 
2633 715 559 575 636 
2634 719 415 457 456 
2635 719 457 415 640 
2636 205 719 275 245 
2637 275 719 205 640 
2638 716 351 392 646 
2639 716 392 351 349 
2640 391 715 350 363 
2641 350 715 391 636 
2642 720 214 273 648 
2643 720 273 214 247 
2644 716 425 470 497 
2645 716 470 425 646 
2646 720 560 576 558 
2647 720 576 560 648 
2648 262 712 288 224 
2649 288 712 262 699 
2650 535 190 665 185 
2651 535 665 190 611 
2652 442 709 480 630 
2653 480 709 442 441 
$EndElements
